<svg width="current" height="current" viewBox="0 0 28 28" fill="none" xmlns="http://www.w3.org/2000/svg">
<g clip-path="url(#clip0_214_391)">
<path fill-rule="evenodd" clip-rule="evenodd" d="M20.37 24.0004H7.64C6.67634 24.0004 5.75201 23.6183 5.06966 22.9378C4.38731 22.2574 4.00265 21.3341 4 20.3704V7.63043C4.00265 6.66677 4.38731 5.74349 5.06966 5.06302C5.75201 4.38255 6.67634 4.00042 7.64 4.00043H20.37C21.3327 4.00043 22.256 4.38287 22.9368 5.06363C23.6176 5.74439 24 6.66769 24 7.63043V20.3704C24 20.8471 23.9061 21.3192 23.7237 21.7596C23.5413 22.2 23.2739 22.6001 22.9368 22.9372C22.5997 23.2743 22.1996 23.5417 21.7591 23.7241C21.3187 23.9065 20.8467 24.0004 20.37 24.0004ZM20.37 22.0004C20.5841 22.0004 20.796 21.9583 20.9938 21.8764C21.1915 21.7944 21.3712 21.6744 21.5226 21.523C21.6739 21.3717 21.794 21.192 21.8759 20.9942C21.9578 20.7964 22 20.5845 22 20.3704V7.63043C22 7.41637 21.9578 7.20441 21.8759 7.00665C21.794 6.80889 21.6739 6.6292 21.5226 6.47784C21.3712 6.32648 21.1915 6.20642 20.9938 6.1245C20.796 6.04259 20.5841 6.00043 20.37 6.00043H7.64C7.20677 6.00042 6.79114 6.17183 6.48387 6.47723C6.17659 6.78263 6.00264 7.19721 6 7.63043V20.3704C6.00264 20.8036 6.17659 21.2182 6.48387 21.5236C6.79114 21.829 7.20677 22.0004 7.64 22.0004H20.37ZM18.5 13.0004H15V9.50043C15 9.23521 14.8946 8.98086 14.7071 8.79332C14.5196 8.60578 14.2652 8.50043 14 8.50043C13.7348 8.50043 13.4804 8.60578 13.2929 8.79332C13.1054 8.98086 13 9.23521 13 9.50043V13.0004H9.5C9.23478 13.0004 8.98043 13.1058 8.79289 13.2933C8.60536 13.4809 8.5 13.7352 8.5 14.0004C8.5 14.2656 8.60536 14.52 8.79289 14.7075C8.98043 14.8951 9.23478 15.0004 9.5 15.0004H13V18.5004C13 18.7656 13.1054 19.02 13.2929 19.2075C13.4804 19.3951 13.7348 19.5004 14 19.5004C14.2652 19.5004 14.5196 19.3951 14.7071 19.2075C14.8946 19.02 15 18.7656 15 18.5004V15.0004H18.5C18.7652 15.0004 19.0196 14.8951 19.2071 14.7075C19.3946 14.52 19.5 14.2656 19.5 14.0004C19.5 13.7352 19.3946 13.4809 19.2071 13.2933C19.0196 13.1058 18.7652 13.0004 18.5 13.0004Z" fill="current"/>
</g>
<defs>
<clipPath id="clip0_214_391">
<rect width="20" height="20" fill="white" transform="translate(4 4.00043)"/>
</clipPath>
</defs>
</svg>
