<svg width="28" height="28" viewBox="0 0 28 28" fill="none" xmlns="http://www.w3.org/2000/svg">
<g clip-path="url(#clip0_214_392)">
<path fill-rule="evenodd" clip-rule="evenodd" d="M20.37 24H7.64C6.67634 24 5.75201 23.6179 5.06966 22.9374C4.38731 22.2569 4.00265 21.3337 4 20.37V7.63C4.00265 6.66635 4.38731 5.74306 5.06966 5.06259C5.75201 4.38212 6.67634 4 7.64 4H20.37C21.3327 4 22.256 4.38245 22.9368 5.0632C23.6176 5.74396 24 6.66726 24 7.63V20.37C24 20.8467 23.9061 21.3187 23.7237 21.7591C23.5413 22.1996 23.2739 22.5997 22.9368 22.9368C22.5997 23.2739 22.1996 23.5413 21.7591 23.7237C21.3187 23.9061 20.8467 24 20.37 24ZM20.37 22C20.5841 22 20.796 21.9578 20.9938 21.8759C21.1915 21.794 21.3712 21.6739 21.5226 21.5226C21.6739 21.3712 21.794 21.1915 21.8759 20.9938C21.9578 20.796 22 20.5841 22 20.37V7.63C22 7.41595 21.9578 7.20399 21.8759 7.00623C21.794 6.80847 21.6739 6.62878 21.5226 6.47742C21.3712 6.32606 21.1915 6.20599 20.9938 6.12408C20.796 6.04216 20.5841 6 20.37 6H7.64C7.20677 5.99999 6.79114 6.1714 6.48387 6.4768C6.17659 6.7822 6.00264 7.19678 6 7.63V20.37C6.00264 20.8032 6.17659 21.2178 6.48387 21.5232C6.79114 21.8286 7.20677 22 7.64 22H20.37ZM18.5 13H15V9.5C15 9.23478 14.8946 8.98043 14.7071 8.79289C14.5196 8.60536 14.2652 8.5 14 8.5C13.7348 8.5 13.4804 8.60536 13.2929 8.79289C13.1054 8.98043 13 9.23478 13 9.5V13H9.5C9.23478 13 8.98043 13.1054 8.79289 13.2929C8.60536 13.4804 8.5 13.7348 8.5 14C8.5 14.2652 8.60536 14.5196 8.79289 14.7071C8.98043 14.8946 9.23478 15 9.5 15H13V18.5C13 18.7652 13.1054 19.0196 13.2929 19.2071C13.4804 19.3946 13.7348 19.5 14 19.5C14.2652 19.5 14.5196 19.3946 14.7071 19.2071C14.8946 19.0196 15 18.7652 15 18.5V15H18.5C18.7652 15 19.0196 14.8946 19.2071 14.7071C19.3946 14.5196 19.5 14.2652 19.5 14C19.5 13.7348 19.3946 13.4804 19.2071 13.2929C19.0196 13.1054 18.7652 13 18.5 13Z" fill="#6E7A85"/>
</g>
<defs>
<clipPath id="clip0_214_392">
<rect width="20" height="20" fill="white" transform="translate(4 4)"/>
</clipPath>
</defs>
</svg>
