<svg width="60" height="60" viewBox="0 0 60 60" fill="none" xmlns="http://www.w3.org/2000/svg">
<rect width="60" height="60" rx="30" fill="black"/>
<path d="M40.6704 24.5462C40.508 24.6722 37.6405 26.2879 37.6405 29.8807C37.6405 34.0363 41.2893 35.5065 41.3985 35.5429C41.3817 35.6325 40.8189 37.5563 39.4747 39.5165C38.2762 41.2414 37.0245 42.9636 35.1203 42.9636C33.2161 42.9636 32.7261 41.8575 30.5278 41.8575C28.3856 41.8575 27.6239 43 25.8822 43C24.1404 43 22.9251 41.4038 21.5277 39.4436C19.9092 37.1418 18.6014 33.5659 18.6014 30.1719C18.6014 24.7282 22.141 21.8411 25.6245 21.8411C27.4755 21.8411 29.0185 23.0564 30.1806 23.0564C31.2867 23.0564 33.0117 21.7683 35.1175 21.7683C35.9156 21.7683 38.7831 21.8411 40.6704 24.5462ZM34.1178 19.4636C34.9887 18.4303 35.6047 16.9966 35.6047 15.5629C35.6047 15.364 35.5879 15.1624 35.5515 15C34.1346 15.0532 32.4488 15.9437 31.4323 17.1226C30.6342 18.0299 29.8894 19.4636 29.8894 20.917C29.8894 21.1354 29.9258 21.3538 29.9426 21.4238C30.0322 21.4406 30.1778 21.4602 30.3234 21.4602C31.5947 21.4602 33.1937 20.609 34.1178 19.4636Z" fill="white"/>
</svg>
