<svg width="16" height="16" viewBox="0 0 16 16" fill="none" xmlns="http://www.w3.org/2000/svg">
<path fill-rule="evenodd" clip-rule="evenodd" d="M8.61063 10.8112L13.1353 6.28654C13.2856 6.13471 13.37 5.92965 13.37 5.71595C13.37 5.50226 13.2856 5.2972 13.1353 5.14537C12.9851 4.99561 12.7817 4.9115 12.5697 4.9115C12.3576 4.9115 12.1542 4.99561 12.0041 5.14537L8 9.14947L3.9959 5.14537C3.84578 4.99561 3.64238 4.9115 3.43032 4.9115C3.21827 4.9115 3.01487 4.99561 2.86475 5.14537C2.71437 5.2972 2.63 5.50226 2.63 5.71595C2.63 5.92965 2.71437 6.13471 2.86475 6.28654L7.38938 10.8112C7.46549 10.8983 7.55935 10.9681 7.66467 11.0159C7.76999 11.0638 7.88433 11.0885 8 11.0885C8.11568 11.0885 8.23002 11.0638 8.33534 11.0159C8.44066 10.9681 8.53452 10.8983 8.61063 10.8112Z" fill="#8991A0"/>
</svg>
