<svg width="current" height="current" viewBox="0 0 20 20" fill="none" xmlns="http://www.w3.org/2000/svg">
<path fill-rule="evenodd" clip-rule="evenodd" d="M10.6115 12.8114L15.1361 8.28675C15.2865 8.13492 15.3709 7.92986 15.3709 7.71617C15.3709 7.50247 15.2865 7.29741 15.1361 7.14558C14.986 6.99582 14.7826 6.91171 14.5705 6.91171C14.3585 6.91171 14.1551 6.99582 14.005 7.14558L10.0009 11.1497L5.99676 7.14558C5.84663 6.99582 5.64323 6.91171 5.43118 6.91171C5.21912 6.91171 5.01573 6.99582 4.8656 7.14558C4.71522 7.29741 4.63086 7.50247 4.63086 7.71617C4.63086 7.92986 4.71522 8.13492 4.8656 8.28675L9.39023 12.8114C9.46634 12.8985 9.5602 12.9683 9.66552 13.0162C9.77084 13.064 9.88518 13.0888 10.0009 13.0888C10.1165 13.0888 10.2309 13.064 10.3362 13.0162C10.4415 12.9683 10.5354 12.8985 10.6115 12.8114Z" fill="#1E242B"/>
</svg>
