<svg width="16" height="16" viewBox="0 0 16 16" fill="none" xmlns="http://www.w3.org/2000/svg">
<path d="M6.10205 12.3504C6.00597 12.3513 5.91073 12.3322 5.82239 12.2944C5.73175 12.2541 5.64951 12.1971 5.58002 12.1263L2.22405 8.7659C2.15302 8.69482 2.09668 8.61042 2.05823 8.51752C2.01979 8.42462 2 8.32505 2 8.2245C2 8.12394 2.01979 8.02437 2.05823 7.93147C2.09668 7.83858 2.15302 7.75418 2.22405 7.68309C2.29345 7.61254 2.37616 7.5565 2.46738 7.51826C2.55861 7.48001 2.65652 7.46031 2.75541 7.46031C2.85431 7.46031 2.95222 7.48001 3.04344 7.51826C3.13467 7.5565 3.21738 7.61254 3.28677 7.68309L6.1207 10.5208L12.7394 3.87461C12.8038 3.8021 12.8832 3.7445 12.972 3.70582C13.0609 3.66713 13.1571 3.64828 13.254 3.65058C13.4518 3.65058 13.6415 3.72925 13.7813 3.8693C13.9212 4.00934 13.9998 4.19929 13.9998 4.39734C14.0024 4.49548 13.9838 4.59303 13.9451 4.68327C13.9065 4.77351 13.8488 4.8543 13.776 4.92007L6.62409 12.1263C6.55459 12.1971 6.47236 12.2541 6.38172 12.2944C6.29338 12.3322 6.19814 12.3513 6.10205 12.3504Z" fill="#1683E7"/>
</svg>
