<svg width="current" height="current" viewBox="0 0 20 20" fill="none" xmlns="http://www.w3.org/2000/svg">
<path d="M7.47526 15.7802C7.34746 15.7814 7.2208 15.7561 7.10331 15.7058C6.98276 15.6523 6.87338 15.5766 6.78095 15.4825L2.31752 11.0174C2.22305 10.9229 2.14811 10.8108 2.09698 10.6874C2.04585 10.5639 2.01953 10.4316 2.01953 10.298C2.01953 10.1644 2.04585 10.0321 2.09698 9.90866C2.14811 9.78523 2.22305 9.67308 2.31752 9.57863C2.40981 9.48488 2.51983 9.41043 2.64115 9.35961C2.76248 9.30879 2.8927 9.28262 3.02423 9.28262C3.15576 9.28262 3.28598 9.30879 3.40731 9.35961C3.52864 9.41043 3.63865 9.48488 3.73094 9.57863L7.50006 13.3492L16.3029 4.51817C16.3886 4.42183 16.4942 4.3453 16.6123 4.29389C16.7305 4.24249 16.8585 4.21744 16.9873 4.22049C17.2504 4.22049 17.5027 4.32503 17.6887 4.51112C17.8747 4.6972 17.9792 4.94958 17.9792 5.21274C17.9827 5.34315 17.9579 5.47276 17.9066 5.59267C17.8552 5.71257 17.7785 5.81992 17.6816 5.90732L8.16958 15.4825C8.07714 15.5766 7.96777 15.6523 7.84722 15.7058C7.72972 15.7561 7.60306 15.7814 7.47526 15.7802Z" fill="#1E242B"/>
</svg>
