<svg width="current" height="current" viewBox="0 0 20 20" fill="none" xmlns="http://www.w3.org/2000/svg">
<path fill-rule="evenodd" clip-rule="evenodd" d="M9.89003 4.8677C8.52629 4.8677 7.21826 5.40812 6.25302 6.37037C5.28777 7.33261 4.74418 8.63806 4.74153 10.0002H6.39105C6.46656 9.99969 6.54052 10.0217 6.60347 10.0633C6.66643 10.105 6.71552 10.1644 6.74449 10.2341C6.77346 10.3037 6.78098 10.3804 6.76611 10.4544C6.75123 10.5283 6.71463 10.5962 6.66097 10.6493L4.18169 13.1356C4.14363 13.1737 4.09843 13.2038 4.04869 13.2244C3.99894 13.245 3.94562 13.2556 3.89177 13.2556C3.83793 13.2556 3.78461 13.245 3.73486 13.2244C3.68512 13.2038 3.63992 13.1737 3.60186 13.1356L1.11258 10.6493C1.05892 10.5962 1.02232 10.5283 1.00744 10.4544C0.992568 10.3804 1.00009 10.3037 1.02906 10.2341C1.05803 10.1644 1.10713 10.105 1.17008 10.0633C1.23303 10.0217 1.30699 9.99969 1.3825 10.0002H3.03202C3.03202 8.18347 3.75456 6.44115 5.04069 5.15653C6.32681 3.8719 8.07118 3.15021 9.89003 3.15021C10.7608 3.15093 11.6232 3.32049 12.4293 3.64948C12.5523 3.70558 12.6604 3.78987 12.7447 3.89553C12.829 4.00118 12.8871 4.1252 12.9144 4.25752C12.9416 4.38983 12.9373 4.52671 12.9016 4.65702C12.866 4.78734 12.8001 4.90742 12.7092 5.0075C12.5911 5.12181 12.4429 5.20032 12.2818 5.2339C12.1208 5.26748 11.9536 5.25476 11.7995 5.19722C11.1901 4.96599 10.5418 4.85411 9.89003 4.8677ZM13.329 9.35115L15.8183 6.86478C15.8564 6.82674 15.9016 6.79656 15.9513 6.77597C16.0011 6.75538 16.0544 6.74479 16.1082 6.74479C16.1621 6.74479 16.2154 6.75538 16.2651 6.77597C16.3149 6.79656 16.3601 6.82674 16.3981 6.86478L18.8874 9.35115C18.9411 9.40423 18.9777 9.47207 18.9926 9.54602C19.0074 9.61997 18.9999 9.69667 18.9709 9.76633C18.942 9.83598 18.8929 9.89544 18.8299 9.93709C18.767 9.97875 18.693 10.0007 18.6175 10.0002H16.968C16.968 11.8169 16.2454 13.5593 14.9593 14.8439C13.6732 16.1285 11.9288 16.8502 10.11 16.8502C9.23908 16.8505 8.37651 16.6809 7.57071 16.3509C7.44607 16.2965 7.33633 16.2131 7.2507 16.1075C7.16508 16.0019 7.10607 15.8774 7.07864 15.7443C7.05122 15.6113 7.05617 15.4736 7.09308 15.3428C7.13 15.2121 7.1978 15.0921 7.29079 14.9929C7.40894 14.8786 7.55713 14.8001 7.71816 14.7665C7.87918 14.7329 8.04644 14.7457 8.20052 14.8032C8.80723 15.0481 9.4556 15.1735 10.11 15.1727C10.7881 15.1727 11.4596 15.0386 12.0857 14.7782C12.7117 14.5178 13.28 14.1361 13.7577 13.6553C14.2353 13.1744 14.613 12.6039 14.8689 11.9766C15.1247 11.3493 15.2538 10.6776 15.2485 10.0002H13.599C13.5234 10.0007 13.4495 9.97875 13.3865 9.93709C13.3236 9.89544 13.2745 9.83598 13.2455 9.76633C13.2165 9.69667 13.209 9.61997 13.2239 9.54602C13.2388 9.47207 13.2754 9.40423 13.329 9.35115Z" fill="#1E242B"/>
</svg>
