<svg width="20" height="20" viewBox="0 0 20 20" fill="none" xmlns="http://www.w3.org/2000/svg">
<path d="M17.733 16.5014L11.2267 9.99772L17.733 3.494C17.8968 3.32979 17.9889 3.10732 17.9889 2.87538C17.9889 2.64343 17.8968 2.42096 17.733 2.25675C17.5668 2.09227 17.3424 2 17.1086 2C16.8748 2 16.6504 2.09227 16.4843 2.25675L9.978 8.76048L3.49363 2.25675C3.32936 2.09295 3.1068 2.00095 2.87477 2.00095C2.64273 2.00095 2.42017 2.09295 2.2559 2.25675C2.09203 2.42096 2 2.64343 2 2.87538C2 3.10732 2.09203 3.32979 2.2559 3.494L8.76218 9.99772L2.2559 16.5014C2.09203 16.6657 2 16.8881 2 17.1201C2 17.352 2.09203 17.5745 2.2559 17.7387C2.3365 17.8211 2.43276 17.8866 2.53903 17.9313C2.64531 17.9761 2.75946 17.9991 2.87477 17.9991C2.99007 17.9991 3.10422 17.9761 3.2105 17.9313C3.31677 17.8866 3.41304 17.8211 3.49363 17.7387L9.9999 11.235L16.5062 17.7387C16.5877 17.8214 16.6849 17.8872 16.7921 17.932C16.8993 17.9769 17.0143 18 17.1305 18C17.2467 18 17.3618 17.9769 17.4689 17.932C17.5761 17.8872 17.6733 17.8214 17.7549 17.7387C17.9159 17.5716 18.004 17.3475 17.9999 17.1155C17.9958 16.8836 17.8998 16.6627 17.733 16.5014Z" fill="#1E242B"/>
</svg>
