<svg width="current" height="current" viewBox="0 0 20 20" fill="none" xmlns="http://www.w3.org/2000/svg">
<path d="M18 10.0002C18 14.4231 14.4229 18.0002 10 18.0002C5.57714 18.0002 2 14.4231 2 10.0002C2 5.57736 5.57714 2.00021 10 2.00021C14.4229 2.00021 18 5.57736 18 10.0002ZM12.2629 6.76593L10 9.02879L7.73714 6.76593C7.47429 6.50307 7.04 6.50307 6.76571 6.76593C6.49143 7.02879 6.50286 7.46307 6.76571 7.73736L9.02857 10.0002L6.76571 12.2631C6.50286 12.5259 6.50286 12.9602 6.76571 13.2345C7.02857 13.5088 7.46286 13.4974 7.73714 13.2345L10 10.9716L12.2629 13.2345C12.5257 13.4974 12.96 13.4974 13.2343 13.2345C13.5086 12.9716 13.4971 12.5374 13.2343 12.2631L10.9714 10.0002L13.2343 7.73736C13.4971 7.4745 13.4971 7.04021 13.2343 6.76593C12.9714 6.49164 12.5371 6.50307 12.2629 6.76593Z" fill="#1E242B"/>
</svg>
