<svg width="current" height="current" viewBox="0 0 20 20" fill="none" xmlns="http://www.w3.org/2000/svg">
<path d="M10.8 6.00021H4.2C3.81 6.00021 3.5 5.69021 3.5 5.30021C3.5 4.91021 3.81 4.60021 4.2 4.60021H10.8C11.19 4.60021 11.5 4.91021 11.5 5.30021C11.5 5.69021 11.19 6.00021 10.8 6.00021ZM15.8 4.60021H14.3V4.20021C14.3 3.81021 13.99 3.50021 13.6 3.50021C13.21 3.50021 12.9 3.81021 12.9 4.20021V6.40021C12.9 6.79021 13.21 7.10021 13.6 7.10021C13.99 7.10021 14.3 6.79021 14.3 6.40021V6.00021H15.8C16.19 6.00021 16.5 5.69021 16.5 5.30021C16.5 4.91021 16.19 4.60021 15.8 4.60021ZM9.2 9.30021H15.8C16.19 9.30021 16.5 9.61021 16.5 10.0002C16.5 10.3902 16.19 10.7002 15.8 10.7002H9.2C8.81 10.7002 8.5 10.3902 8.5 10.0002C8.5 9.61021 8.81 9.30021 9.2 9.30021ZM4.2 10.7002H5.7V11.1002C5.7 11.4902 6.01 11.8002 6.4 11.8002C6.79 11.8002 7.1 11.4902 7.1 11.1002V8.90021C7.1 8.51021 6.79 8.20021 6.4 8.20021C6.01 8.20021 5.7 8.51021 5.7 8.90021V9.30021H4.2C3.81 9.30021 3.5 9.61021 3.5 10.0002C3.5 10.3902 3.81 10.7002 4.2 10.7002ZM12.2 14.0002H15.8C16.19 14.0002 16.5 14.3102 16.5 14.7002C16.5 15.0902 16.19 15.4002 15.8 15.4002H12.2C11.81 15.4002 11.5 15.0902 11.5 14.7002C11.5 14.3102 11.81 14.0002 12.2 14.0002ZM4.2 15.4002H8.7V15.8002C8.7 16.1902 9.01 16.5002 9.4 16.5002C9.79 16.5002 10.1 16.1902 10.1 15.8002V13.6002C10.1 13.2102 9.79 12.9002 9.4 12.9002C9.01 12.9002 8.7 13.2102 8.7 13.6002V14.0002H4.2C3.81 14.0002 3.5 14.3102 3.5 14.7002C3.5 15.0902 3.81 15.4002 4.2 15.4002Z" fill="current"/>
</svg>
