<svg width="193" height="16" viewBox="0 0 193 16" fill="none" xmlns="http://www.w3.org/2000/svg">
<path d="M3.2373 6.69727C3.22998 8.36719 4.57764 9.71484 6.25488 9.71484C7.70508 9.71484 8.84033 8.68213 9.02344 7.32715H7.67578C7.54395 7.96436 6.97998 8.41846 6.25488 8.42578C5.30273 8.41846 4.52637 7.64941 4.52637 6.69727C4.52637 5.73779 5.30273 4.97607 6.25488 4.96875C6.97998 4.97607 7.62451 5.43018 7.74902 6.06738H9.11133C8.92822 4.70508 7.70508 3.67969 6.25488 3.67969C4.57764 3.67969 3.22998 5.02734 3.2373 6.69727ZM0.732422 6.69727C0.725098 9.71484 3.20068 12.1685 6.21094 12.1611C9.23584 12.1685 11.6821 9.71484 11.6748 6.69727C11.6602 3.67236 9.23584 1.22607 6.21094 1.2334C3.20068 1.22607 0.74707 3.67236 0.732422 6.69727ZM2.12402 6.69727C2.12402 4.44141 3.9624 2.61035 6.21094 2.61035C8.45947 2.61035 10.2832 4.43408 10.2979 6.69727C10.2979 8.95312 8.4668 10.7842 6.21094 10.7842C3.94775 10.7842 2.10938 8.93848 2.12402 6.69727ZM21.2695 1.39453V8.90918C21.2622 10.1323 20.6982 10.7695 19.6875 10.7695C18.7573 10.7695 18.1055 10.2202 18.0908 9.33398H16.4941C16.4941 11.1357 17.8418 12.1465 19.6436 12.1465C21.5991 12.1465 22.8735 10.9526 22.8809 8.90918V1.39453H21.2695ZM29.9561 8.68945C29.9561 10.0444 28.9526 10.6816 28.0811 10.6816C27.1289 10.6816 26.4697 9.99316 26.4697 8.90918V4.0459H24.9023V9.09961C24.9023 11.0698 25.9863 12.1025 27.5244 12.1025C28.7183 12.1025 29.5312 11.4727 29.8975 10.623H29.9854V12H31.5088V4.0459H29.9561V8.68945ZM37.8809 6.21387H39.3896C39.2358 4.84424 38.1299 3.94336 36.3574 3.94336C34.5117 3.94336 33.2812 4.91748 33.2812 6.33105C33.2812 7.42969 34.0283 8.19873 35.4639 8.51367L36.709 8.77734C37.5513 8.9751 37.9321 9.30469 37.9395 9.81738C37.9321 10.4839 37.2803 10.9087 36.2695 10.9014C35.3247 10.9087 34.7827 10.5498 34.6436 9.83203H33.0469C33.2446 11.3115 34.3726 12.1611 36.2842 12.1611C38.313 12.1611 39.5288 11.1357 39.5361 9.7002C39.5288 8.57227 38.8184 7.87646 37.3535 7.54688L36.0938 7.25391C35.2148 7.04883 34.8413 6.71191 34.8486 6.24316C34.8413 5.63525 35.4785 5.17383 36.3721 5.17383C37.2363 5.17383 37.7344 5.58398 37.8809 6.21387ZM44.7803 4.0459H43.1543V2.1416H41.6016V4.0459H40.4297V5.29102H41.6016V9.97852C41.5869 11.4287 42.6929 12.1025 43.916 12.1025C44.3481 12.1025 44.6851 12.0732 44.8975 12.0439V10.6816C44.6777 10.7036 44.3335 10.7256 44.1064 10.7256C43.6011 10.7183 43.1616 10.5571 43.1543 9.65625V5.29102H44.7803V4.0459ZM49.9658 12H51.5332V4.0459H49.9658V12ZM49.7607 1.89258C49.7681 2.40527 50.2148 2.82275 50.7568 2.81543C51.2915 2.82275 51.7383 2.40527 51.7383 1.89258C51.7383 1.37988 51.2915 0.969727 50.7568 0.969727C50.2148 0.969727 49.7681 1.37988 49.7607 1.89258ZM57.1582 4.0459H55.5322V2.1416H53.9795V4.0459H52.8076V5.29102H53.9795V9.97852C53.9648 11.4287 55.0708 12.1025 56.2939 12.1025C56.7261 12.1025 57.063 12.0732 57.2754 12.0439V10.6816C57.0557 10.7036 56.7114 10.7256 56.4844 10.7256C55.979 10.7183 55.5396 10.5571 55.5322 9.65625V5.29102H57.1582V4.0459ZM60.5713 10.9893H58.9307L58.1543 15.0322H59.3994L60.5713 10.9893ZM67.2217 12L68.1885 9.20215H72.3193L73.2861 12H75L71.1768 1.39453H69.3164L65.5078 12H67.2217ZM68.6499 7.85449L70.21 3.32812H70.2832L71.8506 7.85449H68.6499ZM77.7832 1.39453H76.2158V12H77.7832V1.39453ZM81.2549 1.39453H79.6875V12H81.2549V1.39453ZM86.8213 12H88.3887V7.15137C88.3887 6.11133 89.1943 5.35693 90.2783 5.36426C90.6006 5.35693 90.9668 5.42285 91.0986 5.45215V3.95801C90.9375 3.94336 90.6299 3.92139 90.4395 3.92871C89.5093 3.92139 88.7109 4.45605 88.418 5.30566H88.3301V4.0459H86.8213V12ZM92.2705 12H93.8379V4.0459H92.2705V12ZM92.0654 1.89258C92.0728 2.40527 92.5195 2.82275 93.0615 2.81543C93.5962 2.82275 94.043 2.40527 94.043 1.89258C94.043 1.37988 93.5962 0.969727 93.0615 0.969727C92.5195 0.969727 92.0728 1.37988 92.0654 1.89258ZM99.082 15.1494C101.133 15.1494 102.678 14.2192 102.671 12.1758V4.0459H101.147V5.33496H101.045C100.752 4.83691 100.21 3.94336 98.7305 3.94336C96.8188 3.94336 95.3906 5.40088 95.3906 7.94238C95.3906 10.4839 96.8408 11.8828 98.7158 11.8828C100.181 11.8828 100.752 11.0625 101.03 10.5498H101.133V12.1172C101.125 13.355 100.342 13.897 99.0967 13.8896C98.064 13.897 97.3608 13.5308 97.207 12.7764H95.6104C95.7495 14.2632 97.0752 15.1494 99.082 15.1494ZM96.9873 7.97168C96.98 6.44824 97.6831 5.26904 99.0674 5.27637C100.415 5.26904 101.147 6.36035 101.147 7.97168C101.147 9.6123 100.4 10.5864 99.0674 10.5938C97.6978 10.5864 96.98 9.53174 96.9873 7.97168ZM106.143 7.2832C106.143 6.01611 106.941 5.29102 108.047 5.29102C109.102 5.29102 109.731 5.96484 109.731 7.13672V12H111.299V6.94629C111.299 4.9541 110.208 3.94336 108.574 3.94336C107.336 3.94336 106.589 4.48535 106.216 5.34961H106.113V1.39453H104.575V12H106.143V7.2832ZM116.909 4.0459H115.283V2.1416H113.73V4.0459H112.559V5.29102H113.73V9.97852C113.716 11.4287 114.822 12.1025 116.045 12.1025C116.477 12.1025 116.814 12.0732 117.026 12.0439V10.6816C116.807 10.7036 116.462 10.7256 116.235 10.7256C115.73 10.7183 115.291 10.5571 115.283 9.65625V5.29102H116.909V4.0459ZM122.769 6.21387H124.277C124.124 4.84424 123.018 3.94336 121.245 3.94336C119.399 3.94336 118.169 4.91748 118.169 6.33105C118.169 7.42969 118.916 8.19873 120.352 8.51367L121.597 8.77734C122.439 8.9751 122.82 9.30469 122.827 9.81738C122.82 10.4839 122.168 10.9087 121.157 10.9014C120.212 10.9087 119.67 10.5498 119.531 9.83203H117.935C118.132 11.3115 119.26 12.1611 121.172 12.1611C123.201 12.1611 124.417 11.1357 124.424 9.7002C124.417 8.57227 123.706 7.87646 122.241 7.54688L120.981 7.25391C120.103 7.04883 119.729 6.71191 119.736 6.24316C119.729 5.63525 120.366 5.17383 121.26 5.17383C122.124 5.17383 122.622 5.58398 122.769 6.21387ZM129.609 12H131.177V7.15137C131.177 6.11133 131.982 5.35693 133.066 5.36426C133.389 5.35693 133.755 5.42285 133.887 5.45215V3.95801C133.726 3.94336 133.418 3.92139 133.228 3.92871C132.297 3.92139 131.499 4.45605 131.206 5.30566H131.118V4.0459H129.609V12ZM138.223 12.1611C139.973 12.1611 141.196 11.2969 141.548 10.0078H139.966C139.702 10.4912 139.124 10.8721 138.237 10.8721C136.934 10.8721 136.04 10.0151 135.996 8.49902H141.65V7.94238C141.65 5.06396 139.929 3.94336 138.12 3.94336C135.901 3.94336 134.436 5.62793 134.443 8.07422C134.436 10.5425 135.879 12.1611 138.223 12.1611ZM136.003 7.32715C136.069 6.20654 136.882 5.2251 138.135 5.23242C139.329 5.2251 140.112 6.11865 140.112 7.32715H136.003ZM147.671 6.21387H149.18C149.026 4.84424 147.92 3.94336 146.147 3.94336C144.302 3.94336 143.071 4.91748 143.071 6.33105C143.071 7.42969 143.818 8.19873 145.254 8.51367L146.499 8.77734C147.341 8.9751 147.722 9.30469 147.729 9.81738C147.722 10.4839 147.07 10.9087 146.06 10.9014C145.115 10.9087 144.573 10.5498 144.434 9.83203H142.837C143.035 11.3115 144.163 12.1611 146.074 12.1611C148.103 12.1611 149.319 11.1357 149.326 9.7002C149.319 8.57227 148.608 7.87646 147.144 7.54688L145.884 7.25391C145.005 7.04883 144.631 6.71191 144.639 6.24316C144.631 5.63525 145.269 5.17383 146.162 5.17383C147.026 5.17383 147.524 5.58398 147.671 6.21387ZM154.277 12.1611C156.028 12.1611 157.251 11.2969 157.603 10.0078H156.021C155.757 10.4912 155.178 10.8721 154.292 10.8721C152.988 10.8721 152.095 10.0151 152.051 8.49902H157.705V7.94238C157.705 5.06396 155.984 3.94336 154.175 3.94336C151.956 3.94336 150.491 5.62793 150.498 8.07422C150.491 10.5425 151.934 12.1611 154.277 12.1611ZM152.058 7.32715C152.124 6.20654 152.937 5.2251 154.189 5.23242C155.383 5.2251 156.167 6.11865 156.167 7.32715H152.058ZM159.258 12H160.825V7.15137C160.825 6.11133 161.631 5.35693 162.715 5.36426C163.037 5.35693 163.403 5.42285 163.535 5.45215V3.95801C163.374 3.94336 163.066 3.92139 162.876 3.92871C161.946 3.92139 161.147 4.45605 160.854 5.30566H160.767V4.0459H159.258V12ZM171.782 4.0459H170.098L168.091 10.1543H168.018L166.011 4.0459H164.326L167.212 12H168.896L171.782 4.0459ZM176.206 12.1611C177.957 12.1611 179.18 11.2969 179.531 10.0078H177.949C177.686 10.4912 177.107 10.8721 176.221 10.8721C174.917 10.8721 174.023 10.0151 173.979 8.49902H179.634V7.94238C179.634 5.06396 177.913 3.94336 176.104 3.94336C173.884 3.94336 172.419 5.62793 172.427 8.07422C172.419 10.5425 173.862 12.1611 176.206 12.1611ZM173.987 7.32715C174.053 6.20654 174.866 5.2251 176.118 5.23242C177.312 5.2251 178.096 6.11865 178.096 7.32715H173.987ZM184.16 12.1611C185.61 12.1538 186.182 11.2749 186.475 10.7549H186.592V12H188.115V1.39453H186.548V5.33496H186.475C186.189 4.83691 185.654 3.94336 184.175 3.94336C182.263 3.94336 180.835 5.45215 180.835 8.04492C180.835 10.6084 182.241 12.1538 184.16 12.1611ZM182.432 8.01562C182.424 6.44824 183.127 5.26904 184.512 5.27637C185.859 5.26904 186.592 6.36035 186.592 8.01562C186.592 9.68555 185.845 10.8208 184.512 10.8281C183.142 10.8208 182.424 9.6123 182.432 8.01562ZM191.177 12.1025C191.741 12.0952 192.209 11.6338 192.217 11.0625C192.209 10.4912 191.741 10.0225 191.177 10.0225C190.605 10.0225 190.129 10.4912 190.137 11.0625C190.129 11.6338 190.605 12.0952 191.177 12.1025Z" fill="#9FAAB4"/>
</svg>
