<svg width="60" height="60" viewBox="0 0 60 60" fill="none" xmlns="http://www.w3.org/2000/svg">
<rect x="0.5" y="0.5" width="59" height="59" rx="29.5" fill="white"/>
<path d="M42.32 30.2915C42.32 29.3815 42.2383 28.5065 42.0867 27.6665H30V32.6365H36.9067C36.6033 34.2348 35.6933 35.5882 34.3283 36.4982V39.7298H38.4933C40.92 37.4898 42.32 34.1998 42.32 30.2915Z" fill="#4285F4"/>
<path d="M30 42.8335C33.465 42.8335 36.37 41.6902 38.4933 39.7302L34.3283 36.4985C33.185 37.2685 31.7267 37.7352 30 37.7352C26.6633 37.7352 23.8283 35.4835 22.8133 32.4502H18.5433V35.7635C20.655 39.9519 24.9833 42.8335 30 42.8335Z" fill="#34A853"/>
<path d="M22.8134 32.4385C22.5567 31.6685 22.405 30.8519 22.405 30.0002C22.405 29.1485 22.5567 28.3319 22.8134 27.5619V24.2485H18.5434C17.6684 25.9752 17.1667 27.9235 17.1667 30.0002C17.1667 32.0769 17.6684 34.0252 18.5434 35.7519L21.8684 33.1619L22.8134 32.4385Z" fill="#FBBC05"/>
<path d="M30 22.2765C31.89 22.2765 33.57 22.9298 34.9117 24.1898L38.5867 20.5148C36.3583 18.4382 33.465 17.1665 30 17.1665C24.9833 17.1665 20.655 20.0482 18.5433 24.2482L22.8133 27.5615C23.8283 24.5282 26.6633 22.2765 30 22.2765Z" fill="#EA4335"/>
<rect x="0.5" y="0.5" width="59" height="59" rx="29.5" stroke="#D7DDE2"/>
</svg>
