<svg width="24" height="24" viewBox="0 0 24 24" fill="none" xmlns="http://www.w3.org/2000/svg">
<rect x="0.5" y="0.5" width="23" height="23" rx="11.5" fill="white"/>
<g clip-path="url(#clip0_612_5475)">
<path d="M19.04 12.166C19.04 11.646 18.9933 11.146 18.9067 10.666H12V13.506H15.9467C15.7733 14.4193 15.2533 15.1927 14.4733 15.7127V17.5593H16.8533C18.24 16.2793 19.04 14.3993 19.04 12.166Z" fill="#4285F4"/>
<path d="M11.9998 19.3337C13.9798 19.3337 15.6398 18.6804 16.8531 17.5604L14.4731 15.7137C13.8198 16.1537 12.9865 16.4204 11.9998 16.4204C10.0931 16.4204 8.47313 15.1337 7.89313 13.4004H5.45312V15.2937C6.65979 17.6871 9.13313 19.3337 11.9998 19.3337Z" fill="#34A853"/>
<path d="M7.89366 13.3929C7.74699 12.9529 7.66033 12.4862 7.66033 11.9996C7.66033 11.5129 7.74699 11.0462 7.89366 10.6062V8.71289H5.45366C4.95366 9.69956 4.66699 10.8129 4.66699 11.9996C4.66699 13.1862 4.95366 14.2996 5.45366 15.2862L7.35366 13.8062L7.89366 13.3929Z" fill="#FBBC05"/>
<path d="M11.9998 7.58602C13.0798 7.58602 14.0398 7.95935 14.8065 8.67935L16.9065 6.57935C15.6331 5.39268 13.9798 4.66602 11.9998 4.66602C9.13312 4.66602 6.65979 6.31268 5.45312 8.71268L7.89312 10.606C8.47312 8.87268 10.0931 7.58602 11.9998 7.58602Z" fill="#EA4335"/>
</g>
<rect x="0.5" y="0.5" width="23" height="23" rx="11.5" stroke="#D7DDE2"/>
<defs>
<clipPath id="clip0_612_5475">
<rect width="16" height="16" fill="white" transform="translate(4 4)"/>
</clipPath>
</defs>
</svg>
