<svg width="20" height="20" viewBox="0 0 20 20" fill="none" xmlns="http://www.w3.org/2000/svg">
<path fill-rule="evenodd" clip-rule="evenodd" d="M9.2368 16.2605C9.70069 16.567 10.299 16.567 10.7622 16.2605C12.2354 15.2881 15.443 12.9638 16.8249 10.3629C18.6463 6.93174 16.5073 3.50964 13.6793 3.50964C12.0675 3.50964 11.0979 4.35176 10.5616 5.07546C10.4972 5.1641 10.4127 5.23623 10.3151 5.28597C10.2174 5.33571 10.1094 5.36164 9.99986 5.36164C9.89028 5.36164 9.78227 5.33571 9.68463 5.28597C9.587 5.23623 9.50252 5.1641 9.4381 5.07546C8.90176 4.35176 7.93218 3.50964 6.32039 3.50964C3.49244 3.50964 1.35337 6.93174 3.17552 10.3629C4.55606 12.9638 7.76501 15.2881 9.2368 16.2605Z" fill="#757E8F"/>
</svg>
