<svg width="24" height="24" viewBox="0 0 24 24" fill="none" xmlns="http://www.w3.org/2000/svg">
<path d="M21.8275 13.2387C20.9472 14.9273 19.6969 16.3261 18.0965 17.4251C16.2761 18.6641 14.2456 19.2935 11.995 19.2935C10.6047 19.2935 9.30433 19.0537 8.07402 18.5841L10.6147 16.0463C11.0348 16.2062 11.4949 16.2961 11.995 16.2961C13.0353 16.2961 13.9255 15.9364 14.6557 15.207C15.3858 14.4777 15.7459 13.5984 15.7459 12.5493C15.7459 12.0498 15.6559 11.6001 15.4959 11.1705L18.6067 8.0632C19.957 9.09231 21.0373 10.3512 21.8275 11.8499C22.0575 12.2896 22.0575 12.8091 21.8275 13.2387ZM9.33433 15.197L6.64366 17.8847L4.04301 20.4825C3.75294 20.7722 3.27282 20.7722 2.98275 20.4825C2.69267 20.1927 2.69267 19.7132 2.98275 19.4234L5.39335 17.0155C4.04301 15.9864 2.96274 14.7275 2.17254 13.2287C1.94249 12.7891 1.94249 12.2696 2.17254 11.8399C3.05276 10.1514 4.30308 8.7526 5.90348 7.65355C7.72393 6.41462 9.75444 5.78516 12.005 5.78516C13.3953 5.78516 14.6857 6.03495 15.916 6.50454L18.9067 3.51712C19.1968 3.22737 19.6769 3.22737 19.967 3.51712C20.2571 3.80687 20.2571 4.28645 19.967 4.5762L17.3663 7.17396L14.6757 9.86165L9.35434 15.1771L9.33433 15.197ZM8.49412 13.9182L13.3653 9.05235C12.9452 8.89248 12.4851 8.80256 11.985 8.80256C10.9447 8.80256 10.0545 9.16225 9.32433 9.89162C8.59415 10.621 8.23406 11.5002 8.23406 12.5493C8.23406 13.0489 8.32408 13.4985 8.48412 13.9281L8.49412 13.9182Z" fill="#B9C2CA"/>
</svg>
