<svg width="60" height="60" viewBox="0 0 60 60" fill="none" xmlns="http://www.w3.org/2000/svg">
<path d="M34.16 27.65L44.6939 40.1833C44.8857 40.4123 45.0079 40.6908 45.0461 40.9864C45.0843 41.2819 45.0369 41.5821 44.9095 41.8518C44.7822 42.1215 44.5801 42.3495 44.327 42.5091C44.0739 42.6687 43.7803 42.7532 43.4806 42.7527H14.1558C13.8561 42.7532 13.5625 42.6687 13.3094 42.5091C13.0563 42.3495 12.8542 42.1215 12.7268 41.8518C12.5995 41.5821 12.5521 41.2819 12.5903 40.9864C12.6285 40.6908 12.7506 40.4123 12.9424 40.1833L17.457 34.794C17.6048 34.6166 17.7902 34.4738 17.9999 34.3758C18.2097 34.2778 18.4386 34.2269 18.6703 34.2269C18.902 34.2269 19.1309 34.2778 19.3407 34.3758C19.5504 34.4738 19.7358 34.6166 19.8836 34.794L22.8067 38.2798L31.7412 27.65C31.8891 27.474 32.0741 27.3324 32.283 27.2352C32.492 27.138 32.7199 27.0876 32.9506 27.0876C33.1813 27.0876 33.4092 27.138 33.6182 27.2352C33.8271 27.3324 34.0121 27.474 34.16 27.65ZM50.4848 26.0833V43.3637C50.4848 45.221 49.7428 47.0022 48.4218 48.3155C47.1009 49.6289 45.3093 50.3667 43.4412 50.3667H14.1952C12.3271 50.3667 10.5355 49.6289 9.21455 48.3155C7.89361 47.0022 7.15152 45.221 7.15152 43.3637V18.9863C7.15152 17.129 7.89361 15.3478 9.21455 14.0345C10.5355 12.7211 12.3271 11.9833 14.1952 11.9833H36.303C36.7209 11.9833 37.1217 11.8183 37.4173 11.5245C37.7128 11.2307 37.8788 10.8322 37.8788 10.4167C37.8788 10.0012 37.7128 9.60267 37.4173 9.30886C37.1217 9.01506 36.7209 8.85 36.303 8.85H14.1952C11.4912 8.85 8.89805 9.91793 6.98609 11.8189C5.07413 13.7198 4 16.298 4 18.9863V43.3637C4 46.052 5.07413 48.6302 6.98609 50.5311C8.89805 52.4321 11.4912 53.5 14.1952 53.5H43.4412C46.1451 53.5 48.7383 52.4321 50.6503 50.5311C52.5622 48.6302 53.6364 46.052 53.6364 43.3637V26.0833C53.6364 25.6678 53.4703 25.2693 53.1748 24.9755C52.8793 24.6817 52.4785 24.5167 52.0606 24.5167C51.6427 24.5167 51.2419 24.6817 50.9464 24.9755C50.6509 25.2693 50.4848 25.6678 50.4848 26.0833ZM54.4242 12.7667H49.697V8.06667C49.697 7.65116 49.531 7.25267 49.2354 6.95886C48.9399 6.66506 48.5391 6.5 48.1212 6.5C47.7033 6.5 47.3025 6.66506 47.007 6.95886C46.7115 7.25267 46.5455 7.65116 46.5455 8.06667V12.7667H41.8182C41.4003 12.7667 40.9995 12.9317 40.704 13.2255C40.4084 13.5193 40.2424 13.9178 40.2424 14.3333C40.2424 14.7488 40.4084 15.1473 40.704 15.4411C40.9995 15.7349 41.4003 15.9 41.8182 15.9H46.5455V20.6C46.5455 21.0155 46.7115 21.414 47.007 21.7078C47.3025 22.0016 47.7033 22.1667 48.1212 22.1667C48.5391 22.1667 48.9399 22.0016 49.2354 21.7078C49.531 21.414 49.697 21.0155 49.697 20.6V15.9H54.4242C54.8422 15.9 55.243 15.7349 55.5385 15.4411C55.834 15.1473 56 14.7488 56 14.3333C56 13.9178 55.834 13.5193 55.5385 13.2255C55.243 12.9317 54.8422 12.7667 54.4242 12.7667Z" fill="#9FAAB4"/>
</svg>
