<svg width="current" height="current" viewBox="0 0 40 40" fill="none" xmlns="http://www.w3.org/2000/svg">
<path d="M40 20C40 31.05 31.05 40 20 40C8.95 40 0 31.05 0 20C0 8.95 8.95 0 20 0C31.05 0 40 8.95 40 20ZM37 20C37 10.63 29.37 3 20 3C10.63 3 3 10.63 3 20C3 29.37 10.63 37 20 37C29.37 37 37 29.37 37 20ZM17.5 23.19H20.97V22.41C20.97 22.03 21.02 21.72 21.12 21.47C21.22 21.22 21.41 20.96 21.7 20.69C21.99 20.42 22.39 20.1 22.91 19.72C23.61 19.2 24.19 18.71 24.66 18.25C25.13 17.79 25.48 17.29 25.71 16.76C25.94 16.23 26.06 15.58 26.06 14.85C26.06 13.47 25.54 12.33 24.51 11.43C23.48 10.53 22.03 10.08 20.16 10.08C18.94 10.08 17.82 10.23 16.79 10.54C16.34 10.67 15.91 10.82 15.49 10.99C14.62 11.34 14.25 12.37 14.67 13.21C15.05 13.97 15.95 14.3 16.74 13.98C17.04 13.86 17.33 13.76 17.62 13.66C18.36 13.43 19.1 13.31 19.86 13.31C20.62 13.31 21.2 13.46 21.62 13.75C22.04 14.05 22.25 14.48 22.25 15.06C22.25 15.64 22.08 16.13 21.72 16.55C21.37 16.97 20.79 17.47 19.98 18.05C19.06 18.71 18.42 19.35 18.04 19.96C17.66 20.57 17.47 21.32 17.47 22.22V23.19H17.5ZM17.74 29.4C18.19 29.75 18.74 29.93 19.38 29.93C20.02 29.93 20.55 29.76 21 29.4C21.45 29.05 21.67 28.48 21.67 27.69C21.67 26.9 21.44 26.29 21 25.95C20.55 25.62 20.01 25.45 19.38 25.45C18.75 25.45 18.19 25.62 17.74 25.95C17.29 26.28 17.07 26.86 17.07 27.69C17.07 28.52 17.29 29.05 17.74 29.4Z" fill="#1E242B"/>
</svg>
