<svg width="60" height="60" viewBox="0 0 60 60" fill="none" xmlns="http://www.w3.org/2000/svg">
<rect width="60" height="60" rx="30" fill="#FEE500"/>
<path d="M30 18.6958C23.2345 18.6958 17.75 23.0202 17.75 28.3545C17.75 31.8032 20.0429 34.8293 23.492 36.538C23.3043 37.1852 22.2862 40.7012 22.2456 40.9774C22.2456 40.9774 22.2213 41.1849 22.3556 41.2641C22.49 41.3432 22.6481 41.2817 22.6481 41.2817C23.0335 41.2279 27.1174 38.3593 27.8242 37.8612C28.5304 37.9612 29.2575 38.0131 30 38.0131C36.7655 38.0131 42.25 33.6889 42.25 28.3545C42.25 23.0202 36.7655 18.6958 30 18.6958Z" fill="black"/>
</svg>
