<svg width="64" height="52" viewBox="0 0 64 52" fill="none" xmlns="http://www.w3.org/2000/svg">
<g clip-path="url(#clip0_200_294)">
<path d="M60.81 25.6V29.3C60.81 31.01 62.2 32.4 63.91 32.4C63.94 32.4 63.97 32.4 64 32.4V35C64 35 63.94 35 63.91 35C60.76 35 58.21 32.45 58.21 29.3V25.6H56V23H58.21V20L60.81 19V23H64V25.6H60.81ZM55.05 18.75C55.04 17.78 54.26 17 53.29 17C52.32 17 51.54 17.79 51.54 18.75C51.54 19.71 52.33 20.5 53.29 20.5C54.25 20.5 55.04 19.71 55.04 18.75H55.05ZM52 23H54.6V34L52 35V23Z" fill="#9FAAB4"/>
<path d="M31.73 35C30.7 35 29.7 34.87 28.76 34.62C27.81 34.36 27.04 34.03 26.49 33.63L26.29 33.48L27.52 31.42L27.73 31.63C28.24 31.97 28.88 32.24 29.62 32.45C30.36 32.66 31.13 32.76 31.89 32.76C34.55 32.76 34.55 31.79 34.55 31.47C34.55 31.2 34.45 31 34.25 30.85C34.02 30.68 33.72 30.54 33.37 30.46C32.98 30.37 32.43 30.27 31.71 30.16C30.71 30.02 29.89 29.85 29.25 29.66C28.58 29.46 28.01 29.13 27.53 28.66C27.04 28.18 26.79 27.5 26.79 26.64C26.79 25.54 27.29 24.65 28.29 23.99C29.26 23.35 30.56 23.02 32.17 23.02C33 23.02 33.85 23.12 34.69 23.3C35.53 23.49 36.24 23.75 36.78 24.08L37.02 24.22L35.75 26.28L35.54 26.1C34.58 25.53 33.44 25.24 32.14 25.24C31.25 25.24 30.57 25.37 30.12 25.63C29.7 25.87 29.5 26.17 29.5 26.55C29.5 26.85 29.61 27.07 29.82 27.24C30.07 27.43 30.38 27.57 30.75 27.66C31.16 27.76 31.73 27.87 32.46 28C33.47 28.16 34.27 28.33 34.89 28.51C35.54 28.7 36.1 29.03 36.56 29.48C37.04 29.95 37.28 30.61 37.28 31.43C37.28 32.53 36.76 33.42 35.74 34.07C34.75 34.7 33.4 35.02 31.71 35.02L31.73 35ZM46.05 25.6V23H42.86V19L40.26 20V23H38.05V25.6H40.26V29.3C40.26 32.45 42.81 35 45.96 35C45.99 35 46.02 35 46.05 35V32.4C46.05 32.4 45.99 32.4 45.96 32.4C44.25 32.4 42.86 31.01 42.86 29.3V25.6H46.05ZM22.15 23V29.66C22.15 30.14 21.98 30.6 21.68 30.97C20.94 31.87 19.83 32.4 18.66 32.4C16.83 32.4 15.35 30.92 15.35 29.09V23H12.75V29.73C12.75 32.64 15.11 35 18.02 35C19.6 35 21.09 34.29 22.09 33.08L22.15 33V35H24.75V23H22.15ZM8.54 18V29.3C8.54 31.01 7.15 32.4 5.44 32.4C4 32.4 2.8 31.41 2.45 30.08L0 31C0.72 33.32 2.89 35 5.44 35C8.59 35 11.14 32.45 11.14 29.3V17L8.54 18Z" fill="#37424D"/>
</g>
<defs>
<clipPath id="clip0_200_294">
<rect width="64" height="18" fill="white" transform="translate(0 17)"/>
</clipPath>
</defs>
</svg>
