<svg width="current" height="current" viewBox="0 0 96 78" fill="none" xmlns="http://www.w3.org/2000/svg">
<g clip-path="url(#clip0_503_1539)">
<path d="M91.2156 38.4V43.95C91.2156 46.515 93.3005 48.6 95.8655 48.6C95.9105 48.6 95.9555 48.6 96.0005 48.6V52.5C96.0005 52.5 95.9105 52.5 95.8655 52.5C91.1405 52.5 87.3155 48.675 87.3155 43.95V38.4H84.0005V34.5H87.3155V30L91.2156 28.5V34.5H96.0005V38.4H91.2156ZM82.5755 28.125C82.5605 26.67 81.3905 25.5 79.9355 25.5C78.4805 25.5 77.3105 26.685 77.3105 28.125C77.3105 29.565 78.4955 30.75 79.9355 30.75C81.3755 30.75 82.5605 29.565 82.5605 28.125H82.5755ZM78.0005 34.5H81.9005V51L78.0005 52.5V34.5Z" fill="#9FAAB4"/>
<path d="M47.595 52.5C46.05 52.5 44.55 52.305 43.14 51.93C41.715 51.54 40.56 51.045 39.735 50.445L39.435 50.22L41.28 47.13L41.595 47.445C42.36 47.955 43.32 48.36 44.43 48.675C45.54 48.99 46.695 49.14 47.835 49.14C51.825 49.14 51.825 47.685 51.825 47.205C51.825 46.8 51.675 46.5 51.375 46.275C51.03 46.02 50.58 45.81 50.055 45.69C49.47 45.555 48.645 45.405 47.565 45.24C46.065 45.03 44.835 44.775 43.875 44.49C42.87 44.19 42.015 43.695 41.295 42.99C40.56 42.27 40.185 41.25 40.185 39.96C40.185 38.31 40.935 36.975 42.435 35.985C43.89 35.025 45.84 34.53 48.255 34.53C49.5 34.53 50.775 34.68 52.035 34.95C53.295 35.235 54.36 35.625 55.17 36.12L55.53 36.33L53.625 39.42L53.31 39.15C51.87 38.295 50.16 37.86 48.21 37.86C46.875 37.86 45.855 38.055 45.18 38.445C44.55 38.805 44.25 39.255 44.25 39.825C44.25 40.275 44.415 40.605 44.73 40.86C45.105 41.145 45.57 41.355 46.125 41.49C46.74 41.64 47.595 41.805 48.69 42C50.205 42.24 51.405 42.495 52.335 42.765C53.31 43.05 54.15 43.545 54.84 44.22C55.56 44.925 55.92 45.915 55.92 47.145C55.92 48.795 55.14 50.13 53.61 51.105C52.125 52.05 50.1 52.53 47.565 52.53L47.595 52.5ZM69.075 38.4V34.5H64.29V28.5L60.39 30V34.5H57.075V38.4H60.39V43.95C60.39 48.675 64.215 52.5 68.94 52.5C68.985 52.5 69.03 52.5 69.075 52.5V48.6C69.075 48.6 68.985 48.6 68.94 48.6C66.375 48.6 64.29 46.515 64.29 43.95V38.4H69.075ZM33.225 34.5V44.49C33.225 45.21 32.97 45.9 32.52 46.455C31.41 47.805 29.745 48.6 27.99 48.6C25.245 48.6 23.025 46.38 23.025 43.635V34.5H19.125V44.595C19.125 48.96 22.665 52.5 27.03 52.5C29.4 52.5 31.635 51.435 33.135 49.62L33.225 49.5V52.5H37.125V34.5H33.225ZM12.81 27V43.95C12.81 46.515 10.725 48.6 8.16 48.6C6 48.6 4.2 47.115 3.675 45.12L0 46.5C1.08 49.98 4.335 52.5 8.16 52.5C12.885 52.5 16.71 48.675 16.71 43.95V25.5L12.81 27Z" fill="#1E242B"/>
</g>
<defs>
<clipPath id="clip0_503_1539">
<rect width="96" height="27" fill="white" transform="translate(0 25.5)"/>
</clipPath>
</defs>
</svg>
