<svg width="current" height="current" viewBox="0 0 20 20" fill="none" xmlns="http://www.w3.org/2000/svg">
<path d="M19 4.00021H1C0.45 4.00021 0 3.55021 0 3.00021C0 2.45021 0.45 2.00021 1 2.00021H19C19.55 2.00021 20 2.45021 20 3.00021C20 3.55021 19.55 4.00021 19 4.00021ZM19 9.00021H1C0.45 9.00021 0 9.45021 0 10.0002C0 10.5502 0.45 11.0002 1 11.0002H19C19.55 11.0002 20 10.5502 20 10.0002C20 9.45021 19.55 9.00021 19 9.00021ZM19 16.0002H1C0.45 16.0002 0 16.4502 0 17.0002C0 17.5502 0.45 18.0002 1 18.0002H19C19.55 18.0002 20 17.5502 20 17.0002C20 16.4502 19.55 16.0002 19 16.0002Z" fill="current"/>
</svg>
