<svg width="24" height="24" viewBox="0 0 24 24" fill="none" xmlns="http://www.w3.org/2000/svg">
<path fill-rule="evenodd" clip-rule="evenodd" d="M3.90434 10.1096C3.52422 10.1096 3.1641 10.2194 2.844 10.4291C2.53391 10.6388 2.28383 10.9383 2.14378 11.2778C2.00374 11.6272 1.96373 12.0066 2.03375 12.3761C2.10377 12.7455 2.28383 13.0849 2.55391 13.3445C2.824 13.6141 3.1541 13.7938 3.52422 13.8637C3.89433 13.9336 4.27445 13.9037 4.62456 13.7539C4.97467 13.6141 5.26476 13.3645 5.47483 13.055C5.68489 12.7455 5.79493 12.3761 5.79493 11.9966C5.79493 11.4974 5.59486 11.0082 5.23475 10.6587C4.87464 10.2993 4.39449 10.0996 3.89433 10.0996L3.90434 10.1096ZM12.0069 10.1096C11.6268 10.1096 11.2666 10.2194 10.9465 10.4291C10.6364 10.6388 10.3864 10.9383 10.2463 11.2778C10.1063 11.6272 10.0663 12.0066 10.1363 12.3761C10.2063 12.7455 10.3864 13.0849 10.6564 13.3445C10.9265 13.6141 11.2566 13.7938 11.6268 13.8637C11.9969 13.9336 12.377 13.9037 12.7271 13.7539C13.0772 13.6141 13.3673 13.3645 13.5774 13.055C13.7874 12.7455 13.8975 12.3761 13.8975 11.9966C13.8975 11.4974 13.6974 11.0082 13.3373 10.6587C12.9772 10.2993 12.497 10.0996 11.9969 10.0996L12.0069 10.1096ZM20.1094 10.1096C19.7293 10.1096 19.3692 10.2194 19.0491 10.4291C18.739 10.6388 18.4889 10.9383 18.3489 11.2778C18.2088 11.6272 18.1688 12.0066 18.2388 12.3761C18.3088 12.7455 18.4889 13.0849 18.759 13.3445C19.0291 13.6141 19.3592 13.7938 19.7293 13.8637C20.0994 13.9336 20.4795 13.9037 20.8296 13.7539C21.1797 13.6141 21.4698 13.3645 21.6799 13.055C21.89 12.7455 22 12.3761 22 11.9966C22 11.4974 21.7999 11.0082 21.4398 10.6587C21.0797 10.2993 20.5996 10.0996 20.0994 10.0996L20.1094 10.1096Z" fill="#1E242B"/>
</svg>
