<svg width="current" height="current" viewBox="0 0 24 24" fill="none" xmlns="http://www.w3.org/2000/svg">
<path fill-rule="evenodd" clip-rule="evenodd" d="M3.90434 10.11C3.52422 10.11 3.1641 10.2198 2.844 10.4295C2.53391 10.6392 2.28383 10.9387 2.14378 11.2782C2.00374 11.6276 1.96373 12.007 2.03375 12.3765C2.10377 12.7459 2.28383 13.0853 2.55391 13.3449C2.824 13.6145 3.1541 13.7942 3.52422 13.8641C3.89433 13.934 4.27445 13.9041 4.62456 13.7543C4.97467 13.6145 5.26476 13.3649 5.47483 13.0554C5.68489 12.7459 5.79493 12.3765 5.79493 11.997C5.79493 11.4978 5.59486 11.0086 5.23475 10.6591C4.87464 10.2997 4.39449 10.1 3.89433 10.1L3.90434 10.11ZM12.0069 10.11C11.6268 10.11 11.2666 10.2198 10.9465 10.4295C10.6364 10.6392 10.3864 10.9387 10.2463 11.2782C10.1063 11.6276 10.0663 12.007 10.1363 12.3765C10.2063 12.7459 10.3864 13.0853 10.6564 13.3449C10.9265 13.6145 11.2566 13.7942 11.6268 13.8641C11.9969 13.934 12.377 13.9041 12.7271 13.7543C13.0772 13.6145 13.3673 13.3649 13.5774 13.0554C13.7874 12.7459 13.8975 12.3765 13.8975 11.997C13.8975 11.4978 13.6974 11.0086 13.3373 10.6591C12.9772 10.2997 12.497 10.1 11.9969 10.1L12.0069 10.11ZM20.1094 10.11C19.7293 10.11 19.3692 10.2198 19.0491 10.4295C18.739 10.6392 18.4889 10.9387 18.3489 11.2782C18.2088 11.6276 18.1688 12.007 18.2388 12.3765C18.3088 12.7459 18.4889 13.0853 18.759 13.3449C19.0291 13.6145 19.3592 13.7942 19.7293 13.8641C20.0994 13.934 20.4795 13.9041 20.8296 13.7543C21.1797 13.6145 21.4698 13.3649 21.6799 13.0554C21.89 12.7459 22 12.3765 22 11.997C22 11.4978 21.7999 11.0086 21.4398 10.6591C21.0797 10.2997 20.5996 10.1 20.0994 10.1L20.1094 10.11Z" fill="#1E242B"/>
</svg>
