<svg width="24" height="24" viewBox="0 0 24 24" fill="none" xmlns="http://www.w3.org/2000/svg">
<g clip-path="url(#clip0_437_1238)">
<path fill-rule="evenodd" clip-rule="evenodd" d="M12.4891 5.51257L4.07516 13.8168C3.74063 14.1529 3.49681 14.5684 3.3665 15.0245L1.51004 21.8015C1.49014 21.8835 1.49014 21.9691 1.51004 22.0511C1.5373 22.1326 1.58153 22.2074 1.6398 22.2707C1.70052 22.3322 1.77618 22.3769 1.85938 22.4004C1.94137 22.4203 2.02692 22.4203 2.10891 22.4004L8.87601 20.6537C9.33458 20.5332 9.7541 20.2959 10.0937 19.965L18.5077 11.6309L12.4891 5.51257ZM5.20302 15.5534C5.23418 15.4149 5.30738 15.2894 5.41261 15.1941L12.4792 8.20744L15.8627 11.6209L8.79616 18.6076C8.69931 18.7109 8.57444 18.7838 8.43685 18.8172L3.98534 19.985L5.20302 15.5534ZM22.1707 6.57056L17.5096 1.83957C17.421 1.74325 17.3118 1.66818 17.1902 1.61999C17.0857 1.57479 16.9743 1.54779 16.8608 1.54014C16.7343 1.53828 16.6086 1.56205 16.4915 1.61001C16.3699 1.6582 16.2607 1.73327 16.1721 1.82959L13.7467 4.25497L19.8351 10.3434L22.2605 7.91799C22.3484 7.82447 22.4193 7.7164 22.4701 7.5986C22.5213 7.47861 22.5484 7.34975 22.55 7.21932C22.5495 7.09199 22.5223 6.96617 22.4701 6.85003C22.4215 6.73106 22.3503 6.62261 22.2605 6.53063" fill="white"/>
</g>
<defs>
<clipPath id="clip0_437_1238">
<rect width="21" height="20.9202" fill="white" transform="translate(1.5 1.54004)"/>
</clipPath>
</defs>
</svg>
