<svg width="20" height="20" viewBox="0 0 20 20" fill="none" xmlns="http://www.w3.org/2000/svg">
<path fill-rule="evenodd" clip-rule="evenodd" d="M10.3878 4.60074L3.39444 11.5357C3.11639 11.8165 2.91373 12.1635 2.80543 12.5443L1.2624 18.204C1.24587 18.2724 1.24587 18.3439 1.2624 18.4123C1.28506 18.4804 1.32182 18.5429 1.37025 18.5957C1.42072 18.6471 1.48361 18.6844 1.55276 18.7041C1.62091 18.7207 1.69202 18.7207 1.76016 18.7041L7.38472 17.2454C7.76587 17.1447 8.11456 16.9466 8.39682 16.6703L15.3902 9.71028L10.3878 4.60074ZM4.33187 12.9861C4.35777 12.8704 4.41861 12.7656 4.50607 12.686L10.3795 6.85127L13.1918 9.70194L7.31836 15.5367C7.23785 15.6229 7.13407 15.6838 7.01971 15.7117L3.31978 16.6869L4.33187 12.9861ZM18.4348 5.48428L14.5606 1.53335C14.487 1.45291 14.3963 1.39022 14.2951 1.34997C14.2083 1.31222 14.1158 1.28967 14.0214 1.28329C13.9162 1.28174 13.8118 1.30158 13.7144 1.34164C13.6133 1.38188 13.5226 1.44457 13.449 1.52501L11.4331 3.55049L16.4935 8.63503L18.5094 6.60955C18.5824 6.53144 18.6414 6.44119 18.6836 6.34282C18.7261 6.24261 18.7487 6.135 18.75 6.02608C18.7496 5.91974 18.727 5.81466 18.6836 5.71767C18.6432 5.61832 18.584 5.52775 18.5094 5.45094" fill="#6E7A85"/>
</svg>
