<svg width="current" height="current" viewBox="0 0 24 24" fill="none" xmlns="http://www.w3.org/2000/svg">
<path fill-rule="evenodd" clip-rule="evenodd" d="M12.4654 5.52105L4.07332 13.843C3.73967 14.1799 3.49648 14.5963 3.36651 15.0533L1.51488 21.8449C1.49504 21.9271 1.49504 22.0128 1.51488 22.095C1.54208 22.1767 1.58619 22.2517 1.6443 22.315C1.70487 22.3767 1.78033 22.4215 1.86331 22.4451C1.94509 22.465 2.03042 22.465 2.11219 22.4451L8.86167 20.6946C9.31904 20.5738 9.73747 20.3361 10.0762 20.0045L18.4682 11.6525L12.4654 5.52105ZM5.19824 15.5834C5.22932 15.4446 5.30233 15.3189 5.40729 15.2233L12.4554 8.22169L15.8302 11.6425L8.78203 18.6442C8.68542 18.7477 8.56088 18.8207 8.42365 18.8542L3.98373 20.0245L5.19824 15.5834ZM22.1217 6.5813L17.4727 1.84018C17.3844 1.74365 17.2755 1.66843 17.1542 1.62013C17.05 1.57483 16.9389 1.54777 16.8257 1.54011C16.6994 1.53825 16.5742 1.56206 16.4573 1.61013C16.336 1.65843 16.2271 1.73365 16.1388 1.83018L13.7197 4.26075L19.7922 10.3622L22.2113 7.93162C22.2989 7.8379 22.3696 7.7296 22.4204 7.61155C22.4714 7.4913 22.4984 7.36216 22.5 7.23146C22.4996 7.10385 22.4724 6.97776 22.4204 6.86137C22.3718 6.74215 22.3009 6.63346 22.2113 6.54129" fill="current"/>
</svg>
