<svg width="24" height="24" viewBox="0 0 24 24" fill="none" xmlns="http://www.w3.org/2000/svg">
<path fill-rule="evenodd" clip-rule="evenodd" d="M12.3485 6.71265L5.14271 13.9185L4.15988 17.5842L3.5134 19.9992C3.49545 20.0666 3.49553 20.1376 3.51366 20.2051C3.53179 20.2725 3.56732 20.3339 3.61668 20.3833C3.66605 20.4327 3.72753 20.4682 3.79495 20.4863C3.86237 20.5045 3.93337 20.5046 4.00084 20.4866L6.41418 19.8393L10.0807 18.8565H10.0815L17.2873 11.6507L12.3493 6.71265H12.3485ZM20.2669 7.54758L16.4532 3.73315C16.3794 3.65924 16.2918 3.6006 16.1953 3.5606C16.0989 3.52059 15.9955 3.5 15.891 3.5C15.7866 3.5 15.6832 3.52059 15.5867 3.5606C15.4903 3.6006 15.4026 3.65924 15.3288 3.73315L13.3608 5.7004L18.2996 10.6392L20.2669 8.67116C20.3408 8.59737 20.3994 8.50974 20.4394 8.41328C20.4794 8.31681 20.5 8.2134 20.5 8.10897C20.5 8.00454 20.4794 7.90113 20.4394 7.80466C20.3994 7.7082 20.3408 7.62057 20.2669 7.54678" fill="current"/>
</svg>
