<svg width="32" height="32" viewBox="0 0 32 32" fill="none" xmlns="http://www.w3.org/2000/svg">
<path d="M28.8262 32H3.25371C2.72773 32.0111 2.2072 31.8913 1.73856 31.6512C1.26992 31.4112 0.867766 31.0583 0.567981 30.6242C0.268197 30.19 0.080112 29.6881 0.0205142 29.1632C-0.0390836 28.6383 0.0316597 28.1068 0.22643 27.616L0.704421 26.4C1.92536 23.3288 4.03563 20.696 6.76241 18.842C9.4892 16.988 12.7071 15.998 16.0001 16C19.2932 15.998 22.5111 16.988 25.2379 18.842C27.9646 20.696 30.0749 23.3288 31.2959 26.4L31.7738 27.616C31.966 28.1004 32.0373 28.6247 31.9816 29.1431C31.926 29.6616 31.745 30.1585 31.4544 30.5907C31.1638 31.0228 30.7725 31.3772 30.3144 31.6228C29.8564 31.8684 29.3455 31.9979 28.8262 32ZM16.0001 0C14.7396 0 13.5074 0.375354 12.4594 1.07859C11.4113 1.78184 10.5944 2.78138 10.1121 3.95083C9.62968 5.12027 9.50347 6.4071 9.74938 7.64858C9.99529 8.89006 10.6023 10.0304 11.4936 10.9255C12.3849 11.8205 13.5205 12.4301 14.7568 12.677C15.9931 12.924 17.2745 12.7972 18.4391 12.3128C19.6036 11.8284 20.599 11.0081 21.2993 9.95565C21.9996 8.90318 22.3733 7.6658 22.3733 6.4C22.3733 4.70261 21.7019 3.07475 20.5067 1.87452C19.3115 0.674284 17.6904 0 16.0001 0Z" fill="#9FAAB4"/>
</svg>
