<svg width="current" height="current" viewBox="0 0 20 20" fill="none" xmlns="http://www.w3.org/2000/svg">
<path d="M18.0164 20H2.03357C1.70483 20.007 1.3795 19.9321 1.0866 19.782C0.793702 19.632 0.542354 19.4114 0.354988 19.1401C0.167623 18.8688 0.05007 18.5551 0.0128214 18.227C-0.0244273 17.8989 0.0197873 17.5667 0.141519 17.26L0.440263 16.5C1.20335 14.5805 2.52227 12.935 4.22651 11.7763C5.93075 10.6175 7.94194 9.99875 10.0001 10C12.0582 9.99875 14.0694 10.6175 15.7737 11.7763C17.4779 12.935 18.7968 14.5805 19.5599 16.5L19.8587 17.26C19.9787 17.5628 20.0233 17.8904 19.9885 18.2145C19.9537 18.5385 19.8406 18.8491 19.659 19.1192C19.4774 19.3893 19.2328 19.6107 18.9465 19.7642C18.6602 19.9178 18.3409 19.9987 18.0164 20ZM10.0001 0C9.21227 0 8.44215 0.234596 7.7871 0.674122C7.13206 1.11365 6.62152 1.73836 6.32003 2.46927C6.01855 3.20017 5.93967 4.00444 6.09336 4.78036C6.24706 5.55629 6.62643 6.26902 7.1835 6.82843C7.74056 7.38784 8.45031 7.7688 9.22299 7.92314C9.99567 8.07748 10.7966 7.99827 11.5244 7.69552C12.2523 7.39277 12.8744 6.88008 13.312 6.22228C13.7497 5.56448 13.9833 4.79113 13.9833 4C13.9833 2.93913 13.5637 1.92172 12.8167 1.17157C12.0697 0.421427 11.0565 0 10.0001 0Z" fill="current"/>
</svg>
