<svg width="current" height="current" viewBox="0 0 24 24" fill="none" xmlns="http://www.w3.org/2000/svg">
<path d="M20.5 12.5C21.05 12.5 21.5 12.95 21.5 13.5V20.21C21.5 21.47 20.48 22.5 19.21 22.5H3.79C2.53 22.5 1.5 21.48 1.5 20.21V4.79C1.5 3.52 2.52 2.5 3.79 2.5H10.5C11.05 2.5 11.5 2.95 11.5 3.5C11.5 4.05 11.05 4.5 10.5 4.5H3.79C3.63 4.5 3.5 4.63 3.5 4.79V20.21C3.5 20.37 3.63 20.5 3.79 20.5H19.21C19.37 20.5 19.5 20.37 19.5 20.21V13.5C19.5 12.95 19.95 12.5 20.5 12.5ZM21.5 5.5H18.5V2.5C18.5 1.95 18.05 1.5 17.5 1.5C16.95 1.5 16.5 1.95 16.5 2.5V5.5H13.5C12.95 5.5 12.5 5.95 12.5 6.5C12.5 7.05 12.95 7.5 13.5 7.5H16.5V10.5C16.5 11.05 16.95 11.5 17.5 11.5C18.05 11.5 18.5 11.05 18.5 10.5V7.5H21.5C22.05 7.5 22.5 7.05 22.5 6.5C22.5 5.95 22.05 5.5 21.5 5.5ZM15.55 15.46L14.67 16.63L10.58 10.37C10.32 9.97 9.73 9.97 9.47 10.37L4.59 17.85C4.33 18.25 4.62 18.79 5.1 18.79H17.88C18.38 18.79 18.67 18.22 18.37 17.82L16.61 15.47C16.35 15.12 15.82 15.12 15.55 15.47V15.46Z" fill="current"/>
</svg>
