<svg width="current" height="current" viewBox="0 0 24 25" fill="none" xmlns="http://www.w3.org/2000/svg">
<path d="M10.8686 12.66L1.84116 8.06459C1.38628 7.83132 1.38628 7.17817 1.84116 6.9449L10.8686 2.36117C11.5801 1.9996 12.4199 1.9996 13.1314 2.36117L22.1588 6.9449C22.6137 7.17817 22.6137 7.83132 22.1588 8.06459L13.1314 12.6483C12.4199 13.0099 11.5801 13.0099 10.8686 12.6483V12.66ZM12.2333 10.8755L18.8464 7.51641L12.2333 4.15734C12.1633 4.12235 12.0816 4.09902 12.0117 4.09902C11.9417 4.09902 11.86 4.12235 11.7901 4.15734L5.1769 7.51641L11.7901 10.8755C11.86 10.9105 11.9417 10.9338 12.0117 10.9338C12.0816 10.9338 12.1633 10.9105 12.2333 10.8755ZM2.86754 11.0271L11.4751 15.4125C11.8017 15.5758 12.1983 15.5758 12.5365 15.4125L21.1441 11.0271C21.7623 10.7122 22.4971 11.1671 22.4971 11.8552C22.4971 12.2051 22.2988 12.5317 21.9839 12.6833L13.1314 17.1854C12.4199 17.547 11.5801 17.547 10.8686 17.1854L2.01611 12.695C1.70119 12.5317 1.50292 12.2168 1.50292 11.8669C1.50292 11.1671 2.23771 10.7238 2.85587 11.0388L2.86754 11.0271ZM2.86754 15.4825L11.4751 19.868C11.8017 20.0313 12.1983 20.0313 12.5365 19.868L21.1441 15.4825C21.7623 15.1676 22.4971 15.6225 22.4971 16.3106C22.4971 16.6605 22.2988 16.9871 21.9839 17.1387L13.1314 21.6408C12.4199 22.0024 11.5801 22.0024 10.8686 21.6408L2.01611 17.1504C1.70119 16.9871 1.50292 16.6722 1.50292 16.3223C1.50292 15.6225 2.23771 15.1793 2.85587 15.4942L2.86754 15.4825Z" fill="#1E242B"/>
</svg>
