<svg width="21" height="20" viewBox="0 0 21 20" fill="none" xmlns="http://www.w3.org/2000/svg">
<path d="M10.0011 17.9934C9.84442 17.992 9.68904 17.965 9.54108 17.9135C9.3942 17.8567 9.25614 17.7794 9.13108 17.6838L2.28108 12.3493C2.18972 12.2909 2.11561 12.2092 2.06639 12.1126C2.01717 12.016 1.99463 11.9081 2.00108 11.7999C2.01284 11.7002 2.04567 11.6041 2.09738 11.518C2.1491 11.4319 2.21853 11.3577 2.30108 11.3004C2.42386 11.2054 2.57585 11.156 2.73108 11.1606C2.88302 11.1575 3.03137 11.2069 3.15108 11.3004L10.0011 16.5849L16.8511 11.3004C16.9708 11.2069 17.1191 11.1575 17.2711 11.1606C17.4263 11.156 17.5783 11.2054 17.7011 11.3004C17.788 11.364 17.8592 11.4466 17.9095 11.5417C17.9597 11.6369 17.9876 11.7423 17.9911 11.8499C17.9986 11.9571 17.9776 12.0644 17.9301 12.1609C17.8827 12.2574 17.8106 12.3396 17.7211 12.3993L10.8711 17.7337C10.746 17.8293 10.608 17.9067 10.4611 17.9635C10.3104 17.9981 10.155 18.0082 10.0011 17.9934ZM10.0011 14.4172C9.84401 14.4206 9.68777 14.3935 9.54108 14.3373C9.39454 14.2841 9.25645 14.2101 9.13108 14.1175L2.26108 8.78306C2.1742 8.71409 2.10553 8.62491 2.06108 8.52333C2.02094 8.42504 2.00055 8.31981 2.00108 8.21366C1.99967 8.11065 2.02011 8.00851 2.06108 7.91397C2.10276 7.81078 2.17192 7.72095 2.26108 7.65424L9.13108 2.30983C9.25614 2.2142 9.3942 2.13684 9.54108 2.08007C9.83844 1.97331 10.1637 1.97331 10.4611 2.08007C10.608 2.13684 10.746 2.2142 10.8711 2.30983L17.7411 7.64425C17.8302 7.71096 17.8994 7.80079 17.9411 7.90398C17.982 7.99852 18.0025 8.10066 18.0011 8.20367C18.0016 8.30982 17.9812 8.41505 17.9411 8.51334C17.8966 8.61492 17.828 8.7041 17.7411 8.77307L10.8711 14.1075C10.7457 14.2001 10.6076 14.2741 10.4611 14.3273C10.3151 14.3869 10.1588 14.4174 10.0011 14.4172ZM10.0011 13.0086L16.1511 8.21366L10.0011 3.41867L3.85108 8.21366L10.0011 13.0086Z" fill="#5C6874"/>
</svg>
