<svg width="24" height="24" viewBox="0 0 24 24" fill="none" xmlns="http://www.w3.org/2000/svg">
<path d="M20.2075 18.7933L16.3683 14.9542C17.2725 13.7558 17.815 12.2708 17.815 10.6575C17.815 6.71083 14.6033 3.5 10.6575 3.5C6.71083 3.50083 3.5 6.71167 3.5 10.6583C3.5 14.6042 6.71083 17.8158 10.6575 17.8158C12.27 17.8158 13.7558 17.2733 14.9542 16.3692L18.7933 20.2083C18.9883 20.4033 19.2442 20.5008 19.5 20.5008C19.7558 20.5008 20.0117 20.4033 20.2075 20.2075C20.5975 19.8175 20.5975 19.1842 20.2075 18.7933ZM5.5 10.6583C5.5 7.81417 7.81333 5.50083 10.6575 5.50083C13.5008 5.50083 15.8142 7.81417 15.8142 10.6575C15.8142 13.5008 13.5008 15.8142 10.6575 15.8142C7.81333 15.815 5.5 13.5017 5.5 10.6583Z" fill="#6E7A85"/>
</svg>
