<svg width="current" height="current" viewBox="0 0 28 28" fill="none" xmlns="http://www.w3.org/2000/svg">
<path d="M23.6985 22.2409L17.2635 15.8059C18.1954 14.5708 18.7546 13.0402 18.7546 11.3773C18.7546 7.30943 15.4443 4 11.3773 4C7.30943 4.00086 4 7.31028 4 11.3781C4 15.4451 7.30943 18.7554 11.3773 18.7554C13.0393 18.7554 14.5708 18.1963 15.8059 17.2643L22.2409 23.6994C22.4419 23.9004 22.7056 24.0009 22.9693 24.0009C23.233 24.0009 23.4967 23.9004 23.6985 23.6985C24.1005 23.2965 24.1005 22.6438 23.6985 22.2409ZM6.06141 11.3781C6.06141 8.44664 8.44578 6.06227 11.3773 6.06227C14.3079 6.06227 16.6923 8.44664 16.6923 11.3773C16.6923 14.3079 14.3079 16.6923 11.3773 16.6923C8.44578 16.6931 6.06141 14.3088 6.06141 11.3781Z" fill="#1E242B"/>
</svg>
