<svg width="current" height="current" viewBox="0 0 24 24" fill="none" xmlns="http://www.w3.org/2000/svg">
<path d="M20.24 18.9827L14.9407 13.6834C15.7446 12.618 16.2269 11.2978 16.2269 9.86345C16.2269 6.35462 13.3715 3.5 9.86345 3.5C6.35462 3.50074 3.5 6.35536 3.5 9.86419C3.5 13.3723 6.35462 16.2276 9.86345 16.2276C11.2971 16.2276 12.618 15.7453 13.6834 14.9415L18.9827 20.2407C19.156 20.4141 19.3835 20.5007 19.6109 20.5007C19.8384 20.5007 20.0658 20.4141 20.24 20.2399C20.5867 19.8932 20.5867 19.3301 20.24 18.9827ZM5.27812 9.86419C5.27812 7.33555 7.33481 5.27886 9.86345 5.27886C12.3913 5.27886 14.448 7.33555 14.448 9.86345C14.448 12.3913 12.3913 14.448 9.86345 14.448C7.33481 14.4488 5.27812 12.3921 5.27812 9.86419Z" fill="#1E242B"/>
</svg>
