<svg width="28" height="28" viewBox="0 0 28 28" fill="none" xmlns="http://www.w3.org/2000/svg">
<path d="M23.6559 21.9917L19.1392 17.475C20.2029 16.0652 20.8412 14.3181 20.8412 12.4201C20.8412 7.77696 17.0627 3.99951 12.4206 3.99951C7.77745 4.00049 4 7.77794 4 12.4211C4 17.0632 7.77745 20.8417 12.4206 20.8417C14.3176 20.8417 16.0657 20.2034 17.4755 19.1397L21.9922 23.6564C22.2216 23.8858 22.5225 24.0005 22.8235 24.0005C23.1245 24.0005 23.4255 23.8858 23.6559 23.6554C24.1147 23.1966 24.1147 22.4515 23.6559 21.9917ZM6.35294 12.4211C6.35294 9.075 9.07451 6.35343 12.4206 6.35343C15.7657 6.35343 18.4873 9.075 18.4873 12.4201C18.4873 15.7652 15.7657 18.4868 12.4206 18.4868C9.07451 18.4877 6.35294 15.7662 6.35294 12.4211Z" fill="#6E7A85"/>
</svg>
