<svg width="current" height="current" viewBox="0 0 24 24" fill="none" xmlns="http://www.w3.org/2000/svg">
<path fill-rule="evenodd" clip-rule="evenodd" d="M12.45 15.0003C12.0558 15.0003 11.6655 14.9227 11.3013 14.7719C10.9372 14.6212 10.6063 14.4002 10.3275 14.1216C10.0488 13.8431 9.82772 13.5124 9.67687 13.1484C9.52603 12.7844 9.44839 12.3944 9.44839 12.0004C9.44839 11.6065 9.52603 11.2164 9.67687 10.8524C9.82772 10.4885 10.0488 10.1577 10.3275 9.87919C10.6063 9.60062 10.9372 9.37965 11.3013 9.2289C11.6655 9.07814 12.0558 9.00055 12.45 9.00055C13.2461 9.00055 14.0095 9.3166 14.5725 9.87919C15.1354 10.4418 15.4516 11.2048 15.4516 12.0004C15.4516 12.796 15.1354 13.559 14.5725 14.1216C14.0095 14.6842 13.2461 15.0003 12.45 15.0003ZM19.8449 13.5971C19.4332 13.1709 19.2033 12.6014 19.2039 12.009V11.9918C19.2033 11.3994 19.4332 10.8299 19.8449 10.4037L20.6137 9.61009C20.9297 9.28282 20.9902 8.78536 20.7635 8.39182L19.7336 6.60982C19.6231 6.41799 19.453 6.26741 19.2491 6.18089C19.0452 6.09437 18.8187 6.07663 18.6039 6.13036L17.5273 6.39873C16.9492 6.54338 16.3374 6.45616 15.8229 6.15573L15.8081 6.14755C15.3013 5.85318 14.9284 5.374 14.7676 4.81064L14.4598 3.73964C14.3991 3.52665 14.2706 3.33923 14.0938 3.20577C13.917 3.07231 13.7015 3.00007 13.4799 3H11.4201C10.9658 3 10.5646 3.30191 10.4402 3.73964L10.1086 4.89245C9.96306 5.40768 9.62086 5.84517 9.15572 6.11073C9.10768 6.13758 9.06018 6.1654 9.01327 6.19418C8.54656 6.47195 7.98879 6.55373 7.46192 6.42164L6.29533 6.13036C6.08055 6.0767 5.85414 6.09438 5.65031 6.18073C5.44648 6.26709 5.27633 6.41742 5.16558 6.609L4.13653 8.39182C4.02584 8.58363 3.9806 8.80622 4.00763 9.02599C4.03465 9.24576 4.13248 9.45078 4.28634 9.61009L5.05506 10.4037C5.46685 10.83 5.69689 11.3995 5.69689 11.991V12.009C5.69689 12.6014 5.46685 13.1708 5.05506 13.5971L4.64328 14.0225C4.38649 14.2879 4.22314 14.6296 4.17794 14.996C4.13275 15.3624 4.20816 15.7335 4.39277 16.0533L5.1664 17.391C5.39399 17.7854 5.85407 17.9809 6.29615 17.8705L7.46273 17.5792C7.98961 17.4471 8.54738 17.5289 9.01409 17.8066C9.06076 17.8353 9.10824 17.8631 9.15654 17.8901C9.62235 18.1535 9.9621 18.5929 10.1095 19.1084L10.4402 20.2612C10.5646 20.6989 10.9658 21 11.4201 21H13.4799C13.9342 21 14.3354 20.6989 14.4598 20.2612L14.7905 19.1084C14.9379 18.5929 15.2776 18.1535 15.7435 17.8901C15.7918 17.8631 15.8392 17.8353 15.8859 17.8066C16.3526 17.5289 16.9104 17.4471 17.4373 17.5792L18.6039 17.8705C18.8186 17.9241 19.045 17.9064 19.2489 17.8201C19.4527 17.7337 19.6229 17.5834 19.7336 17.3918L20.7635 15.609C20.8742 15.4172 20.9194 15.1946 20.8924 14.9748C20.8653 14.7551 20.7675 14.55 20.6137 14.3907L19.8441 13.5971H19.8449Z" fill="#1E242B"/>
</svg>
