<svg width="24" height="24" viewBox="0 0 24 24" fill="none" xmlns="http://www.w3.org/2000/svg">
<path fill-rule="evenodd" clip-rule="evenodd" d="M12 15.0003C11.6059 15.0003 11.2156 14.9227 10.8514 14.7719C10.4872 14.6212 10.1563 14.4002 9.87759 14.1216C9.59886 13.8431 9.37777 13.5124 9.22692 13.1484C9.07608 12.7844 8.99844 12.3944 8.99844 12.0004C8.99844 11.6065 9.07608 11.2164 9.22692 10.8524C9.37777 10.4885 9.59886 10.1577 9.87759 9.87919C10.1563 9.60062 10.4872 9.37965 10.8514 9.2289C11.2156 9.07814 11.6059 9.00055 12 9.00055C12.7961 9.00055 13.5596 9.3166 14.1225 9.87919C14.6854 10.4418 15.0017 11.2048 15.0017 12.0004C15.0017 12.796 14.6854 13.559 14.1225 14.1216C13.5596 14.6842 12.7961 15.0003 12 15.0003ZM19.395 13.5971C18.9832 13.1709 18.7534 12.6014 18.754 12.009V11.9918C18.7534 11.3994 18.9832 10.8299 19.395 10.4037L20.1637 9.61009C20.4797 9.28282 20.5403 8.78536 20.3135 8.39182L19.2836 6.60982C19.1731 6.41799 19.003 6.26741 18.7992 6.18089C18.5953 6.09437 18.3688 6.07663 18.1539 6.13036L17.0774 6.39873C16.4993 6.54338 15.8875 6.45616 15.3729 6.15573L15.3582 6.14755C14.8514 5.85318 14.4784 5.374 14.3177 4.81064L14.0099 3.73964C13.9492 3.52665 13.8207 3.33923 13.6439 3.20577C13.467 3.07231 13.2515 3.00007 13.0299 3H10.9702C10.5158 3 10.1147 3.30191 9.99024 3.73964L9.65869 4.89245C9.51311 5.40768 9.17091 5.84517 8.70577 6.11073C8.65772 6.13758 8.61023 6.1654 8.56332 6.19418C8.09661 6.47195 7.53884 6.55373 7.01197 6.42164L5.84538 6.13036C5.6306 6.0767 5.40419 6.09438 5.20036 6.18073C4.99653 6.26709 4.82638 6.41742 4.71563 6.609L3.68658 8.39182C3.57589 8.58363 3.53065 8.80622 3.55767 9.02599C3.5847 9.24576 3.68253 9.45078 3.83639 9.61009L4.60511 10.4037C5.0169 10.83 5.24694 11.3995 5.24694 11.991V12.009C5.24694 12.6014 5.0169 13.1708 4.60511 13.5971L4.19333 14.0225C3.93654 14.2879 3.77319 14.6296 3.72799 14.996C3.68279 15.3624 3.7582 15.7335 3.94282 16.0533L4.71645 17.391C4.94404 17.7854 5.40412 17.9809 5.8462 17.8705L7.01278 17.5792C7.53966 17.4471 8.09743 17.5289 8.56414 17.8066C8.6108 17.8353 8.65829 17.8631 8.70659 17.8901C9.1724 18.1535 9.51215 18.5929 9.65951 19.1084L9.99024 20.2612C10.1147 20.6989 10.5158 21 10.9702 21H13.0299C13.4843 21 13.8854 20.6989 14.0099 20.2612L14.3406 19.1084C14.488 18.5929 14.8277 18.1535 15.2935 17.8901C15.3418 17.8631 15.3893 17.8353 15.436 17.8066C15.9027 17.5289 16.4604 17.4471 16.9873 17.5792L18.1539 17.8705C18.3687 17.9241 18.5951 17.9064 18.7989 17.8201C19.0027 17.7337 19.1729 17.5834 19.2836 17.3918L20.3135 15.609C20.4242 15.4172 20.4694 15.1946 20.4424 14.9748C20.4154 14.7551 20.3176 14.55 20.1637 14.3907L19.3942 13.5971H19.395Z" fill="current"/>
</svg>
