<svg width="25" height="24" viewBox="0 0 25 24" fill="none" xmlns="http://www.w3.org/2000/svg">
<path d="M12.9976 18.75C10.7476 18.75 8.71762 18.1305 6.89762 16.8814C5.29762 15.7822 4.04762 14.3932 3.16762 12.6945C2.93762 12.2548 2.93762 11.7352 3.16762 11.3055C4.04762 9.61677 5.29762 8.2178 6.89762 7.11862C8.71762 5.87953 10.7476 5.25 12.9976 5.25C15.2476 5.25 17.2776 5.86954 19.0976 7.11862C20.6976 8.2178 21.9476 9.60677 22.8276 11.3055C23.0576 11.7452 23.0576 12.2648 22.8276 12.6945C21.9476 14.3832 20.6976 15.7822 19.0976 16.8814C17.2776 18.1205 15.2476 18.75 12.9976 18.75ZM12.9976 15.7522C14.0376 15.7522 14.9276 15.3925 15.6576 14.663C16.3876 13.9336 16.7476 13.0542 16.7476 12.005C16.7476 10.9558 16.3876 10.0764 15.6576 9.34696C14.9276 8.61751 14.0476 8.25777 12.9976 8.25777C11.9476 8.25777 11.0676 8.61751 10.3376 9.34696C9.60762 10.0764 9.24762 10.9558 9.24762 12.005C9.24762 13.0542 9.60762 13.9336 10.3376 14.663C11.0676 15.3925 11.9476 15.7522 12.9976 15.7522Z" fill="#B9C2CA"/>
</svg>
