<svg width="24" height="24" viewBox="0 0 24 24" fill="none" xmlns="http://www.w3.org/2000/svg">
<path fill-rule="evenodd" clip-rule="evenodd" d="M12 3.25C7.13889 3.25 3.25 6.80899 3.25 11.2088C3.25816 12.2365 3.47543 13.2515 3.88843 14.1915C4.30142 15.1315 4.90139 15.9765 5.65139 16.6744L4.92222 20.2334C4.9024 20.3071 4.9024 20.3847 4.92222 20.4583C4.94684 20.5332 4.99451 20.5983 5.05833 20.6441C5.11643 20.6928 5.18738 20.7233 5.2625 20.7321C5.33514 20.756 5.41347 20.756 5.48611 20.7321L9.45278 18.8353C10.2831 19.0622 11.1396 19.1773 12 19.1775C16.8611 19.1775 20.75 15.6185 20.75 11.2186C20.75 6.81877 16.8611 3.25 12 3.25Z" fill="#8991A0"/>
</svg>
