<svg width="24" height="24" viewBox="0 0 24 24" fill="none" xmlns="http://www.w3.org/2000/svg">
<path d="M14.0331 3.1202H9.95567C9.428 3.1202 8.99627 2.6882 8.99627 2.1602C8.99627 1.6322 9.428 1.2002 9.95567 1.2002H14.0331C14.5608 1.2002 14.9925 1.6322 14.9925 2.1602C14.9925 2.6882 14.5608 3.1202 14.0331 3.1202ZM9.91969 17.3642C10.4474 17.3642 10.8791 16.9322 10.8791 16.4042V11.1242C10.8791 10.5962 10.4474 10.1642 9.91969 10.1642C9.39202 10.1642 8.96029 10.5962 8.96029 11.1242V16.4042C8.96029 16.9322 9.39202 17.3642 9.91969 17.3642ZM14.0811 17.3642C14.6088 17.3642 15.0405 16.9322 15.0405 16.4042V11.1242C15.0405 10.5962 14.6088 10.1642 14.0811 10.1642C13.5534 10.1642 13.1217 10.5962 13.1217 11.1242V16.4042C13.1217 16.9322 13.5534 17.3642 14.0811 17.3642ZM21.6004 5.6882C21.6004 6.2162 21.1687 6.6482 20.641 6.6482H19.2019V19.5722C19.2019 21.3602 17.7508 22.8002 15.9759 22.8002H8.04886C6.26198 22.8002 4.82288 21.3482 4.82288 19.5722V6.6482H3.35979C2.83212 6.6482 2.40039 6.2162 2.40039 5.6882C2.40039 5.1602 2.83212 4.7282 3.35979 4.7282H20.629C21.1567 4.7282 21.5884 5.1602 21.5884 5.6882H21.6004ZM17.2831 6.6482H6.71769V19.5722C6.71769 20.2922 7.30533 20.8802 8.02488 20.8802H15.9519C16.6715 20.8802 17.2591 20.2922 17.2591 19.5722V6.6482H17.2831Z" fill="white"/>
</svg>
