<svg width="current" height="current" viewBox="0 0 24 24" fill="none" xmlns="http://www.w3.org/2000/svg">
<path d="M14.0331 3.12001H9.95567C9.428 3.12001 8.99627 2.68801 8.99627 2.16001C8.99627 1.63201 9.428 1.20001 9.95567 1.20001H14.0331C14.5608 1.20001 14.9925 1.63201 14.9925 2.16001C14.9925 2.68801 14.5608 3.12001 14.0331 3.12001ZM9.91969 17.364C10.4474 17.364 10.8791 16.932 10.8791 16.404V11.124C10.8791 10.596 10.4474 10.164 9.91969 10.164C9.39202 10.164 8.96029 10.596 8.96029 11.124V16.404C8.96029 16.932 9.39202 17.364 9.91969 17.364ZM14.0811 17.364C14.6088 17.364 15.0405 16.932 15.0405 16.404V11.124C15.0405 10.596 14.6088 10.164 14.0811 10.164C13.5534 10.164 13.1217 10.596 13.1217 11.124V16.404C13.1217 16.932 13.5534 17.364 14.0811 17.364ZM21.6004 5.68801C21.6004 6.21601 21.1687 6.64801 20.641 6.64801H19.2019V19.572C19.2019 21.36 17.7508 22.8 15.9759 22.8H8.04886C6.26198 22.8 4.82288 21.348 4.82288 19.572V6.64801H3.35979C2.83212 6.64801 2.40039 6.21601 2.40039 5.68801C2.40039 5.16001 2.83212 4.72801 3.35979 4.72801H20.629C21.1567 4.72801 21.5884 5.16001 21.5884 5.68801H21.6004ZM17.2831 6.64801H6.71769V19.572C6.71769 20.292 7.30533 20.88 8.02488 20.88H15.9519C16.6715 20.88 17.2591 20.292 17.2591 19.572V6.64801H17.2831Z" fill="#1E242B"/>
</svg>
