<svg width="20" height="20" viewBox="0 0 20 20" fill="none" xmlns="http://www.w3.org/2000/svg">
<path d="M11.6939 2.6H8.29607C7.85634 2.6 7.49656 2.24 7.49656 1.8C7.49656 1.36 7.85634 1 8.29607 1H11.6939C12.1337 1 12.4934 1.36 12.4934 1.8C12.4934 2.24 12.1337 2.6 11.6939 2.6ZM8.26608 14.47C8.70581 14.47 9.06558 14.11 9.06558 13.67V9.27C9.06558 8.83 8.70581 8.47 8.26608 8.47C7.82636 8.47 7.46658 8.83 7.46658 9.27V13.67C7.46658 14.11 7.82636 14.47 8.26608 14.47ZM11.7339 14.47C12.1736 14.47 12.5334 14.11 12.5334 13.67V9.27C12.5334 8.83 12.1736 8.47 11.7339 8.47C11.2942 8.47 10.9344 8.83 10.9344 9.27V13.67C10.9344 14.11 11.2942 14.47 11.7339 14.47ZM18 4.74C18 5.18 17.6402 5.54 17.2005 5.54H16.0012V16.31C16.0012 17.8 14.792 19 13.3129 19H6.70706C5.21799 19 4.01874 17.79 4.01874 16.31V5.54H2.7995C2.35978 5.54 2 5.18 2 4.74C2 4.3 2.35978 3.94 2.7995 3.94H17.1905C17.6302 3.94 17.99 4.3 17.99 4.74H18ZM14.4022 5.54H5.59775V16.31C5.59775 16.91 6.08745 17.4 6.68707 17.4H13.2929C13.8926 17.4 14.3823 16.91 14.3823 16.31V5.54H14.4022Z" fill="#6E7A85"/>
</svg>
