<svg width="current" height="current" viewBox="0 0 24 24" fill="none" xmlns="http://www.w3.org/2000/svg">
<path d="M21.8275 13.2389C20.9472 14.9275 19.6969 16.3263 18.0965 17.4253C16.2761 18.6642 14.2456 19.2937 11.995 19.2937C10.6047 19.2937 9.30433 19.0539 8.07402 18.5843L10.6147 16.0465C11.0348 16.2064 11.4949 16.2963 11.995 16.2963C13.0353 16.2963 13.9255 15.9366 14.6557 15.2072C15.3858 14.4779 15.7459 13.5986 15.7459 12.5495C15.7459 12.0499 15.6559 11.6003 15.4959 11.1707L18.6067 8.06338C19.957 9.09249 21.0373 10.3514 21.8275 11.8501C22.0575 12.2897 22.0575 12.8093 21.8275 13.2389ZM9.33433 15.1972L6.64366 17.8849L4.04301 20.4827C3.75294 20.7724 3.27282 20.7724 2.98275 20.4827C2.69267 20.1929 2.69267 19.7133 2.98275 19.4236L5.39335 17.0157C4.04301 15.9866 2.96274 14.7276 2.17254 13.2289C1.94249 12.7893 1.94249 12.2698 2.17254 11.8401C3.05276 10.1516 4.30308 8.75279 5.90348 7.65374C7.72393 6.4148 9.75444 5.78535 12.005 5.78535C13.3953 5.78535 14.6857 6.03513 15.916 6.50472L18.9067 3.5173C19.1968 3.22755 19.6769 3.22755 19.967 3.5173C20.2571 3.80705 20.2571 4.28664 19.967 4.57639L17.3663 7.17415L14.6757 9.86183L9.35434 15.1772L9.33433 15.1972ZM8.49412 13.9183L13.3653 9.05253C12.9452 8.89267 12.4851 8.80274 11.985 8.80274C10.9447 8.80274 10.0545 9.16243 9.32433 9.89181C8.59415 10.6212 8.23406 11.5004 8.23406 12.5495C8.23406 13.0491 8.32408 13.4987 8.48412 13.9283L8.49412 13.9183Z" fill="#1E242B"/>
</svg>
