<svg width="current" height="current" viewBox="0 0 25 24" fill="none" xmlns="http://www.w3.org/2000/svg">
<path d="M12.0025 18.75C9.7525 18.75 7.7225 18.1305 5.9025 16.8814C4.3025 15.7822 3.0525 14.3932 2.1725 12.6945C1.9425 12.2548 1.9425 11.7352 2.1725 11.3055C3.0525 9.61677 4.3025 8.2178 5.9025 7.11862C7.7225 5.87953 9.7525 5.25 12.0025 5.25C14.2525 5.25 16.2825 5.86954 18.1025 7.11862C19.7025 8.2178 20.9525 9.60677 21.8325 11.3055C22.0625 11.7452 22.0625 12.2648 21.8325 12.6945C20.9525 14.3832 19.7025 15.7822 18.1025 16.8814C16.2825 18.1205 14.2525 18.75 12.0025 18.75ZM12.0025 15.7522C13.0425 15.7522 13.9325 15.3925 14.6625 14.663C15.3925 13.9336 15.7525 13.0542 15.7525 12.005C15.7525 10.9558 15.3925 10.0764 14.6625 9.34696C13.9325 8.61751 13.0525 8.25777 12.0025 8.25777C10.9525 8.25777 10.0725 8.61751 9.3425 9.34696C8.6125 10.0764 8.2525 10.9558 8.2525 12.005C8.2525 13.0542 8.6125 13.9336 9.3425 14.663C10.0725 15.3925 10.9525 15.7522 12.0025 15.7522Z" fill="#1E242B"/>
</svg>
